<svg width="24" height="32" viewBox="0 0 24 32" fill="none" xmlns="http://www.w3.org/2000/svg">
<path d="M11.8616 4.8916C8.07711 4.8916 4.99805 7.97054 4.99805 11.7551C4.99805 15.5396 8.07711 18.6185 11.8616 18.6185C15.6462 18.6185 18.7252 15.5396 18.7252 11.7551C18.7252 7.97054 15.6462 4.8916 11.8616 4.8916ZM11.8616 16.7723C9.09506 16.7723 6.84416 14.5215 6.84416 11.7549C6.84416 8.98836 9.09506 6.73771 11.8616 6.73771C14.6282 6.73771 16.8791 8.98849 16.8791 11.7551C16.8791 14.5216 14.6283 16.7723 11.8616 16.7723Z" fill="#D29C4E"/>
<path d="M11.8613 0.115234C5.4437 0.115234 0.222656 5.33628 0.222656 11.7538C0.222656 15.4549 3.32658 20.969 5.17675 23.9264C6.39408 25.872 7.70223 27.7238 8.86011 29.1404C10.7186 31.414 11.3839 31.6043 11.8614 31.6043C12.3461 31.6043 12.9741 31.4139 14.8269 29.139C15.9873 27.714 17.2961 25.8633 18.5122 23.9278C20.375 20.9632 23.5 15.4393 23.5 11.7537C23.5 5.33628 18.279 0.115234 11.8613 0.115234ZM17.2323 22.4904C14.8452 26.3652 12.6536 28.9835 11.8503 29.6519C11.0428 29.004 8.88682 26.448 6.46632 22.5026C3.67168 17.947 2.06889 14.0292 2.06889 11.7538C2.06877 6.35422 6.46164 1.96134 11.8613 1.96134C17.2609 1.96134 21.6538 6.35422 21.6538 11.7538C21.6539 14.0162 20.0422 17.9294 17.2323 22.4904Z" fill="#D29C4E"/>
</svg>
