<svg width="212" height="268" viewBox="0 0 212 268" fill="none" xmlns="http://www.w3.org/2000/svg">
<path fill-rule="evenodd" clip-rule="evenodd" d="M0 76.4688L207.998 20.6104V112.099L0 167.958V76.4688ZM28.5002 85.0997L27.0305 85.4937V97.5584L28.5002 97.1644V91.4305L29.2752 91.2229L31.9561 96.2384L33.5714 95.8058L30.5509 90.1545L33.1999 83.8405L31.5847 84.2731L29.2752 89.7537L28.5002 89.9613V85.0997ZM37.4318 88.4719L36.3981 85.7131L35.4933 83.1777L33.8943 83.6058L36.6723 90.7434L35.3478 95.3295L36.8985 94.9142L40.8394 81.745L39.2887 82.1608L38.3357 85.1778L37.4635 88.4635L37.4315 88.4719H37.4318ZM43.7144 93.0879V82.4122L46.4435 81.681V92.3567L47.9132 91.9627V79.8815L42.2444 81.4002V93.4814L43.7141 93.0879H43.7144ZM51.8059 90.9195L53.6956 84.4697L54.8101 79.9559L54.8583 79.9431L54.6163 84.353V90.1671L56.0861 89.7731V77.7084L54.0994 78.2403L52.7266 82.9371L51.5312 88.2478L51.4829 88.2606L51.7092 83.1284V78.8808L50.2395 79.2748V91.3395L51.8059 90.9198V90.9195ZM66.0191 87.1113V86.0456L67.4725 85.656L69.2975 83.2288V77.1078L67.4725 75.7715L66.0191 76.1611V74.9984L64.5494 75.3924V76.5551L63.0796 76.9491L61.2547 79.263V85.3841L63.0796 86.8336L64.5494 86.4396V87.5053L66.0191 87.1113ZM66.0191 84.5916V77.6148L66.8585 77.3898L67.8278 78.0998V83.0582L66.8428 84.3714L66.0191 84.5919V84.5916ZM63.6934 78.2382L64.5491 78.0086V84.9854L63.7089 85.2103L62.7239 84.4246V79.4662L63.6931 78.2377L63.6934 78.2382ZM75.4186 72.4797L71.6232 73.4972V85.6104L73.0929 85.2163V81.2429L75.4343 80.6156L77.292 78.1638V73.8194L75.4188 72.4797H75.4186ZM73.0929 79.7732V74.5731L74.8208 74.1101L75.8058 74.834V77.9779L74.8046 79.3147L73.0929 79.7732ZM78.6 83.7403L80.0859 83.3424L80.5544 80.0671L83.0736 79.392L83.5421 82.4164L85.0275 82.0179L83.2351 70.3853L80.3927 71.1468L78.5997 83.7403H78.6ZM82.8641 77.9789L80.7647 78.5413L81.6532 72.2844L81.9596 72.2018L82.8644 77.9789H82.8641ZM88.0967 81.1957V75.8659L90.8264 75.1347V80.4646L92.2961 80.0705V68.0058L90.8264 68.3999V73.7297L88.0967 74.4609V69.131L86.627 69.5251V81.5898L88.0967 81.1957ZM94.6218 79.4476L103.521 77.0629V64.9817L102.051 65.3757V76.0677L99.8062 76.6689V65.9769L98.3365 66.3709V77.0629L96.0915 77.6646V66.9889L94.6218 67.3829V79.4476ZM107.413 76.0203L109.302 69.5699L110.417 65.0562L110.465 65.0433L110.223 69.4532V75.2673L111.693 74.8733V62.8086L109.706 63.3411L108.333 68.0373L107.138 73.3485L107.09 73.3614L107.316 68.2292V63.9815L105.846 64.3756V76.4403L107.413 76.0205V76.0203ZM115.504 68.118L116.878 67.7505L117.911 68.4914V70.8008L116.99 72.017L115.973 72.2896L115.068 71.5629V69.9639L113.598 70.3575V72.5376L115.343 73.9277L117.636 73.3131L119.397 70.984V67.4149L118.186 66.544L119.073 65.2402V62.575L117.394 61.1999L115.343 61.7494L113.695 64.0161V65.3406L115.181 64.9421V64.2316L115.956 63.0873L116.78 62.8668L117.587 63.5867V65.0564L116.732 66.3033L115.504 66.6321V68.1175L115.504 68.118ZM124.21 65.2205L123.176 62.4618L122.271 59.9255L120.672 60.3542L123.45 67.4909L122.126 72.0775L123.677 71.6617L127.617 58.4931L126.067 58.9083L125.114 61.9254L124.242 65.2119L124.21 65.2203L124.21 65.2205ZM31.3099 105.907L32.7796 105.513V103.688L31.0192 102.319L28.7255 102.933L26.9655 105.246V113.741L28.7097 115.229L31.0192 114.61L32.7796 112.184V110.278L31.3099 110.688V112.028L30.3732 113.313L29.3557 113.586L28.4347 112.799V105.434L29.3394 104.238L30.3894 103.957L31.3099 104.663V105.907V105.907ZM36.446 106.356V102.432L39.9344 101.497V100.027C37.9802 100.551 36.9303 100.832 34.9761 101.356V113.469L40.1604 112.08V110.61L36.4458 111.605V107.826L39.3692 107.043V105.573L36.4458 106.356L36.446 106.356ZM43.4066 111.21L44.8763 110.816V100.027L47.024 99.4513V98.1268L41.2744 99.6673V100.992L43.4063 100.421V111.21H43.4066ZM50.1574 109.401L52.0471 102.951L53.1616 98.4369L53.2098 98.4241L52.9678 102.833V108.648L54.4375 108.254V96.1894L52.4508 96.7213L51.0781 101.418L49.8826 106.729L49.8344 106.742L50.0607 101.609V97.3618L48.591 97.7558V109.821L50.1574 109.401V109.401ZM65.5978 94.83L63.7728 93.4943L61.4634 94.1127L59.6384 96.4271V104.971L61.4471 106.424L63.7728 105.801L65.5978 103.374V94.83ZM63.1431 104.516L62.0769 104.802L61.0919 104.016V96.6353L62.0606 95.4063L63.1588 95.1121L64.1281 95.8215V103.203L63.1431 104.516ZM67.7787 92.5659V104.679L72.8986 103.307V101.902L69.2485 102.88V92.1722L67.7787 92.5662V92.5659ZM75.9348 101.024V91.8987L77.7115 91.4229L78.6645 92.1043V99.3398L77.7115 100.548L75.9348 101.024ZM74.4651 102.888C75.7413 102.545 77.0333 102.2 78.3255 101.853L80.1342 99.5435V91.1125L78.3255 89.788L74.4651 90.8228V102.887V102.888ZM82.4116 100.758L86.2878 99.7197L88.097 97.426V94.1956L86.8853 93.3247L87.7737 92.0209V89.065L85.965 87.7248L82.4114 88.6772V100.758H82.4116ZM83.8976 93.4959V89.7812L85.3511 89.3916L86.2878 90.0774V91.8379L85.4321 93.0843L83.8976 93.4956V93.4959ZM83.8976 94.9818L85.5773 94.5317L86.611 95.272V97.21L85.6743 98.3981L83.8976 98.874V94.9821V94.9818ZM96.2693 86.6113L94.4443 85.2751L92.1349 85.894L90.31 88.2079V96.7517L92.1187 98.2052L94.4443 97.5817L96.2693 95.1551V86.6113ZM93.8146 96.2971L92.7484 96.5829L91.7634 95.7972V88.4161L92.7321 87.1876L93.8303 86.8934L94.7996 87.6029V94.9839L93.8146 96.2971ZM101.842 91.0616L104.62 82.694L103.069 83.1098L102.084 86.1352L101.115 89.5445L100.162 86.6986L99.1767 84.1525L97.5935 84.5766L100.371 91.4549V95.945L101.841 95.5515V91.0614L101.842 91.0616ZM27.1265 133.61L31.0026 132.572L32.8119 130.278V127.048L31.6001 126.177L32.4886 124.873V121.917L30.6799 120.577L27.1262 121.529V133.61H27.1265ZM28.6125 126.348V122.633L30.0659 122.244L31.0026 122.93V124.69L30.1469 125.936L28.6125 126.348V126.348ZM28.6125 127.834L30.2922 127.384L31.3259 128.124V130.062L30.3892 131.25L28.6125 131.726V127.834V127.834ZM34.2328 131.706L35.7188 131.308L36.1873 128.033L38.7064 127.357L39.1749 130.382L40.6604 129.983L38.8679 118.351L36.0255 119.112L34.2325 131.706H34.2328ZM38.497 125.944L36.3975 126.507L37.286 120.25L37.5925 120.167L38.4972 125.944H38.497ZM43.6976 118.542L45.183 118.144L46.1685 118.869V121.884L45.1673 123.237L43.6976 123.63V118.542V118.542ZM43.6976 125.1L44.9733 124.758L46.863 128.321L48.4782 127.889L46.3305 123.829L47.6388 122.074V117.874L45.781 116.499L42.2281 117.451V129.564L43.6978 129.17V125.1L43.6976 125.1ZM49.9477 127.495L53.8238 126.457L55.633 124.163V120.932L54.4213 120.062L55.3098 118.758V115.802L53.5011 114.462L49.9474 115.414V127.495H49.9477ZM51.4336 120.233V116.518L52.8871 116.129L53.8238 116.814V118.575L52.9681 119.821L51.4336 120.233V120.233ZM51.4336 121.719L53.1133 121.269L54.1471 122.009V123.947L53.2103 125.135L51.4336 125.611V121.719V121.719ZM59.3802 118.249V114.324L62.8686 113.389V111.92C60.9144 112.443 59.8644 112.725 57.9102 113.248V125.361L63.0946 123.972V122.503L59.3799 123.498V119.719L62.3034 118.936V117.466L59.3799 118.249L59.3802 118.249ZM65.9698 112.574L67.4552 112.176L68.4407 112.9V115.915L67.4395 117.268L65.9698 117.662V112.574V112.574ZM65.9698 119.131L67.2455 118.79L69.1352 122.353L70.7504 121.921L68.6027 117.86L69.9109 116.105V111.906L68.0532 110.53L64.5003 111.482V123.595L65.97 123.201V119.131H65.9698ZM73.3346 117.223L71.8811 117.612V119.825L73.6579 121.223L75.9673 120.604L77.744 118.254V114.992L73.4153 113.115V111.435L74.3038 110.244L75.3213 109.972L76.226 110.683V111.942L77.6795 111.553V109.696L75.951 108.35L73.6898 108.956L71.9619 111.227V114.263L76.3063 116.136V118.058L75.3533 119.315L74.2876 119.601L73.3346 118.854V117.223V117.223ZM81.4099 119.065V113.735L84.1396 113.003V118.333L85.6093 117.939V105.874L84.1396 106.268V111.598L81.4099 112.33V107L79.9402 107.394V119.458L81.4099 119.065ZM93.8298 105.303L92.0049 103.967L89.6954 104.586L87.8705 106.9V115.444L89.6792 116.897L92.0049 116.274L93.8298 113.847V105.303ZM91.3751 114.989L90.3089 115.275L89.3239 114.489V107.108L90.2927 105.879L91.3909 105.585L92.3601 106.294V113.675L91.3751 114.989ZM99.8224 102.017L96.027 103.035V115.148L97.4968 114.754V110.781L99.8382 110.153L101.696 107.701V103.357L99.8227 102.017H99.8224ZM97.4968 109.311V104.111L99.2247 103.648L100.21 104.372V107.516L99.2085 108.852L97.4968 109.311Z" fill="#F5BE6C"/>
<path fill-rule="evenodd" clip-rule="evenodd" d="M142.285 32.9319C140.963 32.0722 139.388 31.5725 137.698 31.5725C134.425 31.5725 131.58 33.4447 130.18 36.1749L142.285 32.9319ZM86.9511 47.759L85.167 40.5825L102.616 43.0893L110.357 27.5192L123.376 37.9985L124.436 37.7146L137.698 19.4753L146.634 31.7668L152.041 30.3178V29.6338L137.698 9.91016L122.84 30.343L108.435 18.7497L99.3906 36.9423L77.6895 33.8248L81.514 49.2159L86.9511 47.759ZM115.19 40.1924V40.0143H109.562V41.7001L115.19 40.1924Z" fill="#D8A04D"/>
<g filter="url(#filter0_d_681_125)">
<path fill-rule="evenodd" clip-rule="evenodd" d="M4.69336 69.7993L208 15.3232V106.914L4.69336 161.391V161.389V69.7993Z" fill="white"/>
</g>
<path fill-rule="evenodd" clip-rule="evenodd" d="M108.582 133.555C107.661 130.776 106.101 128.229 103.969 126.097L98.3084 120.441L97.2314 121.519C97.4446 118.949 97.3122 116.353 96.7999 113.786L94.7177 103.372L94.4039 103.528C95.1084 101.353 95.4956 99.0716 95.4956 96.7679V90.6563H88.9962C87.2738 90.6563 85.5802 90.9155 83.9482 91.377C84.1228 90.3881 84.241 89.3803 84.241 88.3565C84.241 83.6464 82.4087 79.2195 79.0784 75.8904L72.9872 69.7979L66.8947 75.8904C63.5644 79.2195 61.7339 83.6464 61.7339 88.3565C61.7339 92.1244 62.9378 95.7161 65.081 98.6783C61.9242 97.1452 58.4413 96.2842 54.9209 96.2842H50.4785V102.395C50.4785 108.191 52.8304 113.868 56.9302 117.968C57.2204 118.257 57.5363 118.52 57.8415 118.793H56.1062V126.892C56.1062 131.492 57.8976 135.816 61.1508 139.068C63.0623 140.98 65.3481 142.369 67.8393 143.206L60.4616 145.047L61.079 146.283L92.8018 137.783C93.1925 134.875 94.5169 132.189 96.6258 130.077L98.3084 128.397L99.991 130.08C101.41 131.5 102.474 133.18 103.136 135.013L108.582 133.555ZM137.697 48.4554C142.351 48.4554 146.138 44.6684 146.138 40.0154C146.138 37.0516 144.602 34.4386 142.284 32.9324L130.181 36.1757C129.59 37.3285 129.256 38.6338 129.256 40.0154C129.256 44.6684 133.043 48.4554 137.696 48.4554H137.697ZM137.697 37.201C139.25 37.201 140.51 38.4616 140.51 40.0154C140.51 41.5677 139.25 42.8282 137.697 42.8282C136.143 42.8282 134.882 41.5677 134.882 40.0154C134.882 38.4616 136.143 37.201 137.697 37.201ZM93.3479 73.7766L101.749 69.0804C112.719 62.9485 125.151 59.7087 137.697 59.7087C142.521 59.7087 147.326 60.189 152.041 61.1267V55.3958C147.319 54.5259 142.515 54.0815 137.697 54.0815C124.191 54.0815 110.812 57.5678 99.0031 64.1681L92.0033 68.0855L86.9508 47.7591L81.5139 49.2165L87.6164 73.7766H93.3479ZM123.375 37.9991L123.915 38.4335L124.437 37.7146L123.375 37.9991ZM146.633 31.7674L151.477 38.4306L152.04 37.9784V30.3184L146.633 31.7674ZM92.6807 54.0815H98.3084V48.4554H92.6807V54.0815ZM109.562 45.6426H115.189V40.1926L109.562 41.7006V45.6426ZM91.2815 114.892C92.1283 119.111 91.7272 123.448 90.1298 127.44C88.7762 130.826 86.6081 133.752 83.8498 136.079C83.0985 134.649 82.4161 133.194 81.7643 131.725C81.5596 131.183 81.3058 130.661 81.0528 130.143C81.0394 130.111 81.0315 130.077 81.0184 130.047H81.4269V126.867C81.4269 125.477 81.5957 124.084 81.9371 122.724C83.1286 117.964 86.2977 113.958 90.6465 111.704L91.2813 114.893L91.2815 114.892ZM81.8458 98.451C83.9689 97.0322 86.4403 96.2842 88.9962 96.2842H89.8676V96.7674C89.8676 101.084 88.1177 105.31 85.0655 108.362C82.8885 110.54 80.109 112.041 77.1284 112.73C76.8466 111.815 76.5291 110.917 76.1405 110.05C76.0619 109.209 76.0087 108.362 75.9604 107.515L76.7653 105.101C77.6687 102.393 79.4724 100.029 81.8458 98.4513V98.451ZM77.4629 118.406C77.4579 118.42 77.4495 118.434 77.4456 118.442C77.4433 118.434 77.4401 118.42 77.4401 118.409C77.4495 118.409 77.4548 118.406 77.4632 118.406H77.4629ZM70.8744 79.8678L72.9875 77.7537L75.0987 79.8678C77.3339 82.1009 78.6146 85.1964 78.6146 88.3565C78.6146 92.3777 76.6172 96.1125 73.2719 98.3433L72.9875 98.5323L72.7035 98.3433C69.3564 96.1101 67.3598 92.3753 67.3598 88.3565C67.3598 85.1964 68.6404 82.1007 70.8746 79.8678H70.8744ZM60.9073 113.99C57.8554 110.937 56.1062 106.711 56.1062 102.395V101.954C59.4863 102.184 62.7799 103.402 65.4934 105.436C67.7142 107.099 69.4589 109.29 70.6806 111.755C70.9349 114.112 71.302 116.445 71.7734 118.754C67.7158 118.568 63.7901 116.869 60.9073 113.989V113.99ZM65.1287 135.091C62.9708 132.931 61.7339 129.945 61.7339 126.891V124.42H63.019C66.8813 124.42 70.5113 125.921 73.2425 128.653C74.2954 129.706 75.1511 130.92 75.8309 132.232C76.0566 132.78 76.3214 133.315 76.5577 133.861C76.7388 134.355 76.9173 134.854 77.0442 135.369L77.8226 138.486H73.328C70.2745 138.486 67.2866 137.247 65.1287 135.091Z" fill="#666666" fill-opacity="0.101961"/>
<path fill-rule="evenodd" clip-rule="evenodd" d="M151.898 157.778C151.898 151.587 151.898 151.587 151.898 151.587C152.029 152.232 152.16 152.747 152.16 153.006C152.291 154.167 152.422 156.232 152.552 156.875C152.421 157.006 152.16 157.392 151.898 157.778ZM195.806 281.383C193.89 275.255 191.841 268.762 190.635 265.097C187.495 255.682 181.736 247.039 181.081 244.846C180.69 243.815 180.428 241.75 180.428 238.783C180.428 238.783 180.428 238.783 180.428 234.656C180.69 231.69 181.081 228.078 181.736 224.079C183.699 213.244 187.102 189.639 188.542 183.576C189.981 177.643 191.29 174.161 188.411 161.777C185.401 149.395 184.615 143.848 183.699 140.107C182.783 136.366 181.867 132.11 181.736 129.143C181.605 126.177 181.605 123.725 179.119 120.114C176.632 116.373 173.753 112.116 173.229 111.213C172.707 110.311 171.397 107.086 170.874 106.182C170.743 105.667 170.35 105.28 170.089 104.893C169.827 105.538 169.172 106.312 168.256 106.441C168.125 106.569 168.125 106.569 167.995 106.569C167.472 106.569 166.817 106.312 166.294 105.667C164.461 103.732 162.106 99.2172 161.713 97.0239C161.451 94.7021 162.89 90.7036 163.545 89.1557C164.33 87.2207 164.592 85.4154 164.723 84.8989C164.723 84.3832 164.592 83.996 164.592 83.7378C164.33 83.2221 163.545 81.6748 161.321 81.6748C161.19 81.6748 161.19 81.6748 161.058 81.8032C158.179 81.9322 152.421 82.4487 149.018 90.0586C145.746 97.5401 146.924 110.051 147.972 115.212C148.888 120.5 149.672 124.885 149.804 126.434C150.065 127.723 150.589 128.626 151.112 129.271C153.076 130.948 154.646 130.69 155.692 130.561C156.085 130.433 156.347 130.433 156.609 130.433C156.609 130.433 156.609 130.433 156.479 131.464C156.347 131.464 156.085 131.464 155.824 131.593C155.431 131.593 154.908 131.722 154.384 131.722C153.73 131.722 152.945 131.593 152.029 131.077C152.029 131.464 152.029 131.851 152.029 132.109C151.898 132.625 150.589 135.204 151.244 138.945C151.636 141.525 152.029 145.652 152.16 148.104C152.421 149.136 153.076 151.843 153.207 153.005C153.337 154.295 153.598 157.004 153.598 157.004C153.598 157.004 153.598 157.004 153.598 157.133C153.598 157.133 153.598 157.133 153.468 157.261C153.468 157.391 152.683 158.422 151.898 159.583C151.898 159.583 151.898 159.583 151.898 198.28C151.898 206.793 144.83 213.758 136.193 213.758C136.193 213.758 136.193 213.758 61.2034 213.758C59.6338 213.758 58.0629 213.501 56.6239 213.113C57.2783 214.274 57.8008 215.306 58.193 215.822C58.9792 216.983 60.6807 220.079 60.6807 220.079C60.6807 220.079 60.8115 221.111 61.0729 221.756C61.4664 222.4 63.0355 224.852 66.4387 229.237C67.4852 230.656 69.0562 232.591 70.6263 234.655C70.6263 234.655 70.6263 234.655 73.7668 238.782C76.7765 242.524 79.9183 246.263 82.4049 249.101C87.508 254.777 90.5188 256.196 91.8275 257.357C93.1363 258.517 99.9413 264.967 100.988 266.644C102.036 268.321 101.905 269.353 102.559 270.126C103.213 270.901 106.485 275.931 108.578 279.286C108.838 279.701 109.071 280.44 109.281 281.382H106.137C106.081 281.205 106.022 281.062 105.962 280.962C103.475 277.092 100.596 272.706 100.203 272.191C99.4178 271.288 99.1559 270.514 98.8937 269.739C98.7634 269.353 98.6329 268.837 98.3717 268.321C97.5855 267.16 91.5648 261.355 89.7331 259.679C89.4714 259.55 89.0792 259.291 88.687 258.905C86.9848 257.743 84.1059 255.68 80.0488 251.166C77.0386 247.812 73.1129 243.039 69.8411 238.782C69.8411 238.782 69.8411 238.782 66.7006 234.655C65.9149 233.624 65.1297 232.72 64.4753 231.946C64.4753 231.946 64.4753 231.946 63.9517 231.172C60.4185 226.657 58.7173 223.949 58.3246 223.046C57.9311 222.401 57.8005 221.627 57.6697 221.111C57.1467 220.079 56.0993 218.273 55.5763 217.5C55.1828 216.983 54.7906 216.21 54.0048 214.791C53.6126 214.017 52.828 212.468 52.4352 211.824C52.043 211.696 51.3887 211.437 50.8643 211.179C49.1634 210.405 46.9386 209.502 45.6294 208.599C43.536 207.179 38.8248 204.73 37.6469 204.342C35.6838 203.956 32.4124 202.149 31.4954 201.504C31.4954 201.504 31.3646 201.504 31.2337 201.376C29.5323 200.602 25.7374 198.796 23.9056 194.926C21.5498 189.896 23.1199 185.897 24.9522 182.285C25.0836 181.77 25.3449 181.382 25.4758 180.996C26.6531 178.544 27.4378 176.996 29.2712 175.836C29.0095 175.45 28.7471 175.062 28.6163 174.675C28.4854 174.159 27.8311 173.385 27.3075 172.482C25.2141 169.515 22.0726 165.001 22.8588 159.712C23.0276 158.475 23.2366 157.361 23.4728 156.357L26.9056 155.438C26.4964 156.706 26.1306 158.244 25.868 160.1C25.2141 165.259 29.532 169.903 31.1034 172.74C31.1034 172.74 33.1969 175.836 40.2628 175.19C40.9182 175.19 41.5726 175.062 42.227 174.934C43.0116 174.804 43.667 174.675 44.3204 174.417C46.1532 173.773 47.9857 172.225 49.4245 168.871C51.9117 163.324 50.3405 158.423 48.7696 155.714C48.7696 155.585 48.6393 155.456 48.6393 155.456C47.1998 153.52 45.4983 152.876 45.4983 150.682V150.455L49.9486 149.262V149.651C49.9486 154.647 55.8783 154.726 52.4347 169.515C52.1731 170.676 52.0425 171.708 51.7798 172.482C51.7798 172.482 51.7798 172.482 51.7798 182.673C51.7798 183.059 51.7798 183.446 51.7798 183.833C51.7798 184.22 51.7798 184.736 51.7798 185.253C51.7798 186.283 51.9117 187.703 51.7798 189.251V193.167C51.3066 193.996 50.8809 194.896 50.7372 195.699L50.7333 195.7C50.7333 195.7 50.7333 195.7 50.7333 194.668C50.6024 195.184 50.3405 195.829 50.2097 196.345C49.817 197.377 49.2937 198.28 48.6393 199.054C49.0315 205.503 54.5281 210.663 61.2024 210.663C61.2024 210.663 61.2024 210.663 136.192 210.663C143.128 210.663 148.755 205.116 148.755 198.28C148.755 181.14 151.096 154.221 148.1 139.461C147.578 135.72 148.494 132.882 148.886 131.721C148.886 131.593 148.886 131.593 148.886 131.593C141.725 123.137 141.684 93.1556 147.889 85.7326C148.163 85.315 148.449 84.9133 148.755 84.5114V83.5752C148.933 82.5431 148.921 81.2351 148.755 79.7321V16.6627C148.755 9.82614 143.128 4.28025 136.192 4.28025C136.192 4.28025 136.192 4.28025 61.2024 4.28025C54.2665 4.28025 48.6393 9.82614 48.6393 16.6627V58.0225L44.4085 59.1556C44.6746 58.7668 45.0668 58.4682 45.4983 58.3261C45.4983 58.3261 45.4983 58.3261 45.4983 53.9408C44.7131 53.6831 44.0587 52.9087 44.0587 52.0063C44.0587 52.0063 44.0587 52.0063 44.0587 42.719C44.0587 41.8161 44.7131 41.0422 45.4983 40.784C45.4983 40.784 45.4983 40.784 45.4983 16.6627C45.4983 8.15037 52.4347 1.18457 61.2024 1.18457C61.2024 1.18457 61.2024 1.18457 136.192 1.18457C144.829 1.18457 151.897 8.15037 151.897 16.6627C151.897 16.6627 151.897 16.6627 151.897 39.1071C152.158 39.3654 152.289 39.7526 152.289 40.2677C152.289 40.2677 152.289 40.2677 152.289 49.426C152.289 49.943 152.158 50.3295 151.897 50.7167C151.897 50.7167 151.897 50.7167 151.897 81.545C152.551 81.0288 153.205 80.6421 153.859 80.3833C156.477 78.9653 158.963 78.707 160.926 78.707C161.057 78.707 161.189 78.5786 161.32 78.5786C164.067 78.5786 165.769 79.9966 166.815 81.4155C167.077 81.545 167.47 81.8027 167.731 82.0609C168.779 83.0923 169.171 84.5117 169.695 87.6079C169.957 89.5424 171.789 99.7321 172.443 102.827C172.835 103.344 173.359 103.988 173.752 104.763C174.014 105.15 174.276 105.795 174.537 106.569C174.93 107.472 175.715 109.149 175.977 109.665C176.369 110.31 178.594 113.663 181.735 118.308C184.614 122.563 184.745 125.659 184.876 128.626C184.876 128.626 184.876 128.626 184.876 129.013C185.007 131.207 185.531 134.56 186.709 139.332C187.1 140.88 187.494 142.557 187.885 144.62C188.54 148.361 189.588 153.263 191.42 161.132C194.299 173.128 193.252 177.384 191.943 182.802C191.812 183.317 191.681 183.834 191.55 184.349C190.766 187.833 189.195 197.893 187.625 207.567C186.577 214.146 185.531 220.208 184.876 224.594C184.091 228.464 183.828 231.817 183.698 234.655C183.698 234.655 183.698 234.655 183.567 238.782C183.567 241.492 183.829 243.168 184.091 243.942C184.222 244.458 185.138 246.134 185.922 247.554C188.148 251.552 191.42 257.614 193.645 264.194C194.283 266.108 198.229 275.954 200.235 281.382H195.805L195.806 281.383ZM47.3327 206.021C46.1548 205.246 43.93 203.957 41.8363 202.925C43.1451 202.667 44.5841 202.151 45.7615 201.377C46.155 203.183 46.8094 204.731 47.7251 206.278C47.5938 206.15 47.4635 206.02 47.3329 206.02L47.3327 206.021ZM34.5074 199.701C33.8531 199.313 33.4595 199.055 33.1982 198.926C32.6746 198.539 28.3567 197.12 26.6545 193.638C25.0849 190.026 25.8693 187.316 27.701 183.576C29.5333 179.965 29.9268 178.805 31.7586 177.901C32.8052 177.513 33.8531 177.127 34.7683 176.998C35.5535 176.869 36.4698 176.74 37.5166 176.74C38.5645 176.74 39.7419 176.74 40.9198 176.74C41.0501 176.74 41.0501 176.74 41.0501 176.74C45.4999 177.127 45.4999 177.127 45.4999 177.127C46.1548 177.385 46.9399 177.772 47.5938 178.288C48.6409 179.707 48.6409 181.9 48.6409 183.835C48.6409 186.672 49.1644 190.026 47.2013 195.314C45.2382 200.604 35.9457 200.474 34.5074 199.701V199.701ZM50.7348 175.451C50.7348 177.513 50.7348 177.513 50.7348 177.513C50.4727 177.127 50.2113 176.74 49.9502 176.352C50.211 176.096 50.4727 175.837 50.7348 175.451ZM165.77 84.5127C166.032 85.0284 166.294 86.0606 166.556 88.1241C166.948 90.3166 169.042 101.926 169.435 103.989C169.304 104.377 168.781 105.409 168.126 105.538C167.733 105.538 167.472 105.409 167.079 105.022C165.116 102.959 163.022 98.7018 162.76 96.8954C162.499 94.7029 164.069 90.7041 164.462 89.415C165.378 87.351 165.64 85.4159 165.64 84.8994C165.771 84.7704 165.771 84.6417 165.771 84.5127H165.77Z" fill="#D8A04D"/>
<path d="M150.709 154.099V144.624L150.601 143.492C150.446 141.951 150.26 140.382 150.069 139.122C149.468 135.643 150.411 133.091 150.793 132.062L150.84 131.925V130.57C150.676 130.448 150.51 130.317 150.341 130.172L150.262 130.104L150.193 130.019C149.884 129.639 149.571 129.176 149.296 128.615C149.027 128.065 148.795 127.419 148.643 126.666L148.62 126.532C148.51 125.24 147.916 121.825 147.173 117.549L146.802 115.413C146.174 112.293 145.501 106.588 145.739 100.881C145.906 96.8511 146.527 92.7969 147.931 89.5864L147.936 89.577C149.771 85.473 152.272 83.265 154.709 82.064C156.922 80.9742 159.041 80.7306 160.568 80.6431C160.767 80.4881 160.898 80.4876 161.319 80.4876C162.884 80.4876 163.911 81.0617 164.58 81.702V80.8074C164.429 80.6942 164.269 80.587 164.102 80.4876C163.414 80.0807 162.563 79.8012 161.512 79.7708C161.356 79.8403 161.181 79.8967 160.926 79.8967C159.996 79.8967 158.954 79.9557 157.87 80.1751C156.786 80.3945 155.622 80.7783 154.42 81.4288L154.295 81.4893C154.02 81.5981 153.747 81.7329 153.479 81.8912C153.186 82.064 152.902 82.2598 152.63 82.4748L150.709 83.9923V50.3569L150.913 50.0549C151.038 49.8698 151.101 49.6811 151.101 49.4275V40.2692C151.101 40.1368 151.09 40.0375 151.068 39.973L151.066 39.9533L150.709 39.6004V16.6644C150.709 12.7366 149.078 9.16565 146.452 6.57779C143.822 3.98443 140.189 2.37445 136.192 2.37445H61.2026C57.1579 2.37445 53.5371 3.9721 50.9254 6.54659C48.2984 9.1355 46.6866 12.7193 46.6866 16.6647V41.6427L45.865 41.9133C45.6922 41.9699 45.5294 42.0905 45.4114 42.2489C45.3105 42.3847 45.2471 42.5485 45.2471 42.7208V52.0081C45.2471 52.1798 45.3105 52.3442 45.4114 52.48C45.5286 52.6378 45.6914 52.7584 45.865 52.815L46.6866 53.085V57.3193L47.4516 57.1146V16.6644C47.4516 12.9178 48.9955 9.52298 51.4895 7.0649C53.9786 4.61232 57.4143 3.09384 61.2029 3.09384H136.192C139.981 3.09384 143.417 4.61258 145.906 7.0649C148.4 9.52298 149.943 12.9178 149.943 16.6644V79.6919C150.028 80.4792 150.072 81.2083 150.072 81.8666C150.072 82.5097 150.03 83.1114 149.943 83.6614V84.9033C149.573 85.3904 149.169 86.0482 148.799 86.4954C145.81 90.0709 144.365 99.4536 144.57 108.904C144.766 117.934 146.477 126.915 149.791 130.829L150.075 131.164V131.906L150.01 132.099C149.826 132.646 149.516 133.588 149.32 134.811C149.123 136.034 149.032 137.561 149.275 139.3C150.112 143.463 150.535 148.551 150.709 154.099L150.709 154.099ZM194.673 281.736C193.527 278.069 192.43 274.576 191.606 271.983C190.866 269.652 190.147 267.416 189.506 265.468C187.483 259.386 184.314 253.581 182.2 249.708C181.058 247.616 180.209 246.062 179.949 245.202C179.724 244.582 179.539 243.695 179.417 242.565C179.304 241.511 179.239 240.243 179.239 238.783C179.239 237.507 179.135 235.774 179.244 234.554C179.374 233.073 179.539 231.419 179.755 229.615C179.965 227.859 180.23 225.945 180.566 223.889L180.57 223.87C181.382 219.389 182.454 212.64 183.527 205.87C185.034 196.372 186.547 186.829 187.385 183.302L187.687 182.088C188.951 176.993 189.87 173.292 187.254 162.042C185.308 154.027 184.297 148.922 183.579 145.295C183.172 143.235 182.856 141.644 182.548 140.385C182.084 138.488 181.619 136.464 181.258 134.553C180.889 132.605 180.62 130.743 180.552 129.194L180.536 128.816C180.425 126.197 180.329 123.96 178.144 120.787L175.941 117.486C174.162 114.825 172.588 112.471 172.203 111.807C171.924 111.325 171.446 110.25 170.971 109.177C170.587 108.312 170.202 107.446 169.949 106.961C169.627 107.209 169.253 107.409 168.835 107.527C168.578 107.758 168.476 107.758 167.994 107.758C167.536 107.758 167.023 107.641 166.526 107.378C166.139 107.172 165.755 106.871 165.412 106.46C164.437 105.423 163.344 103.751 162.445 102.054C161.515 100.298 160.769 98.4657 160.548 97.2333L160.534 97.1541C160.413 96.08 160.592 94.7521 160.897 93.4424C161.33 91.582 162.035 89.6923 162.448 88.7121C163.033 87.2625 163.31 85.8919 163.461 85.145L163.532 84.7966C163.524 84.6277 163.495 84.4665 163.472 84.3302L163.43 84.0777C163.2 83.6737 162.701 83.0002 161.65 82.8817L161.564 82.9664L161.109 82.9871C159.776 83.0466 157.775 83.1953 155.758 84.1886C153.748 85.1791 151.669 87.0344 150.103 90.5326C148.83 93.4473 148.262 97.2063 148.106 100.974C147.876 106.497 148.526 111.998 149.132 114.981L149.511 117.149C150.258 121.449 150.857 124.891 150.982 126.294C151.091 126.79 151.245 127.214 151.422 127.576C151.585 127.908 151.773 128.195 151.963 128.44C153.428 129.649 154.628 129.499 155.45 129.396C155.68 129.33 155.882 129.292 156.07 129.272C156.302 129.247 156.457 129.246 156.609 129.246H157.951L157.521 132.653L156.348 132.657L156.094 132.783H155.824C155.688 132.783 155.528 132.804 155.358 132.826C155.047 132.866 154.71 132.911 154.383 132.911C153.992 132.911 153.554 132.872 153.063 132.755L153.013 132.883C152.697 133.735 151.908 135.863 152.412 138.742L152.417 138.77C152.602 139.988 152.793 141.611 152.958 143.26C153.127 144.951 153.264 146.643 153.335 147.919C153.5 148.575 153.787 149.758 154.022 150.857C154.187 151.631 154.328 152.372 154.385 152.877C154.385 154.377 154.786 156.027 154.786 157.627L154.415 157.993C154.248 158.295 154.004 158.638 153.72 159.04L153.086 159.949V198.282C153.086 202.866 151.181 207.035 148.115 210.058C145.053 213.075 140.832 214.948 136.193 214.948H61.2031C60.4483 214.948 59.6812 214.89 58.9196 214.788C59.0009 214.92 59.0727 215.029 59.1346 215.11L59.1716 215.161C60.0336 216.434 61.7109 219.493 61.7157 219.501L61.8087 219.667L61.8452 219.849C61.8452 219.851 61.9951 220.804 62.1453 221.24C62.4214 221.685 63.0826 222.708 64.2817 224.379C65.0617 225.474 66.0805 226.846 67.3756 228.515L67.3942 228.539C67.9778 229.33 68.6793 230.226 69.4488 231.208C70.0898 232.026 70.7783 232.905 71.5656 233.94L74.7006 238.055C76.1417 239.847 77.6368 241.666 79.0882 243.399C80.6253 245.235 82.0593 246.912 83.285 248.311C87.0109 252.453 89.5867 254.269 91.1828 255.394C91.7598 255.8 92.2176 256.123 92.6116 256.473C93.4366 257.204 96.3913 259.984 98.7534 262.38C100.254 263.9 101.547 265.301 101.995 266.02C102.629 267.035 102.879 267.82 103.084 268.466C103.203 268.857 103.305 269.175 103.463 269.363C103.792 269.751 104.701 271.088 105.793 272.749C107.053 274.667 108.51 276.939 109.585 278.662C109.768 278.954 109.931 279.328 110.076 279.768C110.198 280.136 110.319 280.598 110.436 281.129L110.758 282.572H105.275L105.01 281.746L104.948 281.58C103.596 279.474 102.271 277.435 101.299 275.955C100.258 274.375 99.4764 273.203 99.2772 272.933C98.8216 272.402 98.5146 271.91 98.2849 271.439C98.061 270.979 97.9155 270.55 97.7708 270.122L97.668 269.801C97.582 269.527 97.4821 269.206 97.3442 268.919C97.0047 268.465 95.911 267.329 94.6017 266.019C92.5993 264.016 90.1677 261.689 89.0485 260.657C88.8807 260.564 88.6938 260.445 88.5018 260.304C88.3217 260.171 88.1293 260.012 87.9384 259.83C87.0854 259.247 85.9449 258.436 84.486 257.195C82.9971 255.928 81.218 254.243 79.1674 251.961C77.6942 250.32 75.9639 248.293 74.177 246.124C72.3772 243.941 70.551 241.65 68.904 239.508L65.7591 235.376C65.1215 234.539 64.4695 233.771 63.8943 233.094C63.5015 232.631 63.3269 232.367 62.9683 231.837C61.4367 229.877 60.248 228.257 59.3624 226.978C58.216 225.323 57.544 224.188 57.273 223.598C56.8745 222.917 56.7111 222.219 56.5821 221.666L56.5546 221.534C56.3061 221.051 55.9524 220.417 55.5995 219.806C55.2262 219.163 54.8492 218.544 54.5928 218.165C54.2538 217.706 53.9345 217.124 53.4351 216.213C53.2723 215.918 53.0937 215.615 52.944 215.315C52.6179 214.676 52.0259 213.508 51.628 212.796L51.1946 212.625C50.9049 212.506 50.6037 212.373 50.3405 212.244L49.2955 211.78C47.7751 211.106 46.1022 210.365 44.9568 209.576C44.0107 208.934 42.4846 208.06 41.0128 207.276C39.4398 206.437 37.9554 205.71 37.343 205.493C36.4524 205.307 35.3686 204.887 34.3309 204.409C32.9582 203.776 31.6293 203.019 30.972 202.584C30.8603 202.541 30.7408 202.483 30.6218 202.402C29.721 201.99 28.337 201.322 26.9134 200.265C25.392 199.136 23.8471 197.575 22.8341 195.434C21.5434 192.673 21.3295 190.189 21.6897 187.895C22.0355 185.694 22.9001 183.726 23.8363 181.869C23.9386 181.518 24.0731 181.235 24.1984 180.971C24.2634 180.829 24.3269 180.697 24.3533 180.618L24.4089 180.489C25.0229 179.209 25.537 178.163 26.1492 177.266C26.5954 176.612 27.0885 176.041 27.692 175.53C27.6168 175.379 27.5494 175.223 27.4938 175.058L27.4663 174.97C27.4343 174.843 27.2086 174.508 26.9478 174.119C26.743 173.814 26.5196 173.483 26.3141 173.132C25.2429 171.614 23.9092 169.701 22.9177 167.444C21.8913 165.105 21.2553 162.441 21.6853 159.543C21.7728 158.921 21.8698 158.317 21.9765 157.737C22.0893 157.121 22.2044 156.575 22.3179 156.091L22.1372 156.912L28.2678 155.075L28.0336 155.803C27.8294 156.436 27.637 157.136 27.4658 157.906C27.3088 158.611 27.1656 159.396 27.0427 160.265C26.5975 163.821 28.9457 167.305 30.7112 169.925C31.2392 170.708 31.7203 171.422 32.1035 172.104C32.3332 172.402 34.2127 174.558 40.1568 174.015L40.2606 174.005C40.5338 174.005 40.8049 173.978 41.0744 173.939C41.3617 173.898 41.6811 173.835 42.0004 173.772L42.0373 173.768C42.3863 173.711 42.7164 173.65 43.0543 173.571C43.3393 173.504 43.6127 173.423 43.8848 173.315L43.9315 173.302C44.6847 173.038 45.445 172.58 46.1717 171.837C46.9422 171.05 47.6779 169.941 48.3346 168.41L48.344 168.391C49.3188 166.217 49.6163 164.153 49.5248 162.31C49.4014 159.829 48.5724 157.738 47.7447 156.31L47.5819 156.029C47.1976 155.532 46.7789 155.114 46.3912 154.729C45.2492 153.592 44.3109 152.658 44.3109 150.686L51.1374 148.947V149.654C51.1374 150.986 51.7048 151.968 52.3563 153.096C53.967 155.882 56.0064 159.413 53.5908 169.788C53.5061 170.157 53.4254 170.575 53.3507 170.967C53.2316 171.588 53.1234 172.152 52.9684 172.662V185.256C52.9684 185.671 52.9786 185.957 52.9891 186.262C53.0201 187.157 53.0565 188.199 52.9684 189.29V193.476L52.8101 193.755C52.5956 194.131 52.3909 194.524 52.226 194.91C52.0729 195.269 51.9554 195.612 51.9022 195.912L51.7714 196.642L51.3186 196.771C51.1031 197.34 50.8454 197.881 50.5486 198.394C50.3381 198.757 50.1082 199.103 49.8589 199.431C50.1383 202.17 51.4437 204.63 53.3905 206.429C55.4333 208.317 58.1848 209.478 61.2031 209.478H136.193C139.339 209.478 142.186 208.222 144.245 206.194C146.297 204.171 147.568 201.373 147.568 198.283C147.568 193.428 147.767 187.568 147.976 181.417C148.479 166.591 149.04 150.044 146.941 139.696L146.927 139.627C146.648 137.626 146.754 135.861 146.982 134.441C147.155 133.366 147.397 132.497 147.593 131.873C144.167 127.327 142.404 118.114 142.205 108.952C141.99 99.059 143.606 89.1014 146.927 85.0422L147.342 84.439L147.568 84.1281V83.4894L147.587 83.3793C147.661 82.9483 147.697 82.44 147.697 81.8684C147.697 81.2445 147.656 80.5731 147.577 79.8655C145.781 63.5877 147.568 34.345 147.568 16.6663C147.568 13.5764 146.298 10.7788 144.245 8.75614C142.186 6.72801 139.34 5.47196 136.193 5.47196H61.2034C58.0566 5.47196 55.2097 6.72801 53.1512 8.75614C51.0989 10.7788 49.8282 13.5764 49.8282 16.6663V57.7073L42.6508 59.6306L43.4302 58.4907C43.6311 58.1965 43.8864 57.9312 44.1772 57.7099L44.3106 57.6135V54.6628C44.0052 54.4536 43.732 54.1919 43.5091 53.8928C43.1164 53.3642 42.871 52.7125 42.871 52.0099V42.7226C42.871 42.0195 43.1156 41.3685 43.5091 40.8397C43.732 40.5401 44.0052 40.2784 44.3106 40.0692V16.6663C44.3106 12.0671 46.194 7.88443 49.2643 4.85902C52.3064 1.8606 56.5135 0 61.2029 0H136.192C140.832 0 145.053 1.87319 148.114 4.89048C151.181 7.91248 153.085 12.0817 153.085 16.6663V38.7201C153.177 38.8721 153.253 39.037 153.313 39.2145C153.423 39.5349 153.478 39.8886 153.478 40.2713V49.4296C153.478 50.0615 153.347 50.5661 153.085 51.0488V79.4261L153.376 79.3015C154.765 78.5601 156.128 78.1158 157.407 77.857C158.624 77.6106 159.738 77.5327 160.72 77.5235C160.876 77.4527 161.051 77.394 161.32 77.394C162.927 77.394 164.24 77.8161 165.309 78.4479C166.271 79.0158 167.022 79.7527 167.607 80.5015C167.733 80.5757 167.866 80.6604 167.993 80.7495C168.187 80.8864 168.387 81.0481 168.562 81.2204C169.225 81.8718 169.675 82.6285 170.032 83.6834C170.35 84.6217 170.592 85.8064 170.864 87.4167L170.869 87.4537C171.004 88.446 171.543 91.5655 172.124 94.7826C172.648 97.6913 173.214 100.711 173.55 102.334C173.942 102.845 174.412 103.459 174.788 104.19C174.947 104.44 175.097 104.733 175.235 105.06C175.377 105.391 175.514 105.762 175.648 106.157C175.803 106.509 176.064 107.078 176.335 107.662C176.622 108.285 176.895 108.857 177.026 109.118C177.251 109.478 177.938 110.522 178.979 112.084C179.893 113.457 181.161 115.344 182.718 117.648C185.772 122.16 185.92 125.425 186.058 128.548C186.07 128.703 186.064 128.86 186.064 129.016C186.133 130.117 186.308 131.537 186.623 133.317C186.914 134.95 187.317 136.854 187.858 139.048C188.048 139.793 188.244 140.6 188.453 141.526C188.653 142.416 188.853 143.367 189.05 144.405L189.054 144.419C189.382 146.291 189.805 148.44 190.371 151.085C190.936 153.726 191.655 156.912 192.575 160.865C195.505 173.095 194.446 177.484 193.106 183.03L192.7 184.64C192.063 187.477 190.907 194.653 189.656 202.417L188.793 207.756C188.334 210.641 187.907 213.235 187.509 215.655C186.953 219.035 186.451 222.084 186.05 224.769L186.036 224.829C185.655 226.709 185.398 228.483 185.22 230.14C185.041 231.801 184.944 233.323 184.881 234.709L184.751 238.785C184.755 239.993 184.805 240.963 184.882 241.72C184.971 242.606 185.094 243.211 185.214 243.565L185.241 243.653C185.281 243.81 185.509 244.276 185.815 244.865C186.176 245.559 186.587 246.309 186.961 246.986C188.084 249.008 189.473 251.548 190.851 254.394C192.243 257.27 193.638 260.478 194.767 263.816V263.826C195.064 264.717 196.203 267.638 197.512 270.998C198.853 274.438 200.373 278.337 201.348 280.977L201.938 282.573H194.934L194.673 281.738V281.736ZM193.861 271.268C194.855 274.398 195.815 277.447 196.675 280.195H198.524C197.558 277.636 196.373 274.593 195.303 271.85C193.999 268.503 192.865 265.595 192.524 264.574C191.427 261.337 190.071 258.22 188.716 255.423C187.347 252.596 185.987 250.107 184.888 248.131L184.883 248.126C184.474 247.385 184.034 246.585 183.709 245.959C183.337 245.244 183.046 244.622 182.948 244.261C182.787 243.764 182.631 242.997 182.525 241.951C182.437 241.081 182.379 240.023 182.379 238.784C182.516 237.779 182.515 235.684 182.515 234.606C182.582 233.156 182.682 231.578 182.863 229.888C183.043 228.209 183.308 226.389 183.704 224.424C184.063 222.004 184.59 218.81 185.171 215.273C185.59 212.726 186.04 209.998 186.456 207.383L187.318 202.044C188.582 194.202 189.749 186.956 190.395 184.091C190.478 183.629 190.67 182.931 190.806 182.471C192.071 177.233 193.072 173.086 190.269 161.407L190.264 161.403C189.354 157.489 188.632 154.288 188.051 151.575C187.473 148.87 187.044 146.695 186.717 144.826C186.526 143.809 186.333 142.892 186.142 142.044C185.959 141.231 185.761 140.423 185.559 139.622C184.994 137.328 184.579 135.373 184.286 133.724C183.951 131.835 183.766 130.298 183.694 129.084L183.689 128.628C183.569 125.843 183.43 122.93 180.752 118.973C179.339 116.884 178.045 114.954 177.003 113.391C175.931 111.782 175.205 110.671 174.966 110.278L174.92 110.2C174.773 109.909 174.481 109.298 174.185 108.662C173.943 108.146 173.671 107.549 173.452 107.043L173.415 106.951C173.292 106.587 173.171 106.257 173.055 105.986C172.951 105.74 172.855 105.546 172.774 105.428L172.695 105.298C172.394 104.704 171.992 104.181 171.659 103.747L171.339 103.335L171.284 103.07C170.971 101.588 170.365 98.3533 169.795 95.1981C169.21 91.9561 168.669 88.8271 168.527 87.8042C168.276 86.3193 168.058 85.2438 167.787 84.4419C167.557 83.7545 167.286 83.2847 166.902 82.9069L166.897 82.9019C166.833 82.8379 166.735 82.7611 166.63 82.6869C166.501 82.5959 166.379 82.522 166.292 82.4793L166.032 82.3503L165.936 82.2208L166.828 83.9797C166.998 84.3171 167.163 84.794 167.318 85.4787C167.454 86.083 167.59 86.8874 167.726 87.9531L169.593 98.2898L170.535 103.436L171.072 104.23L171.261 104.489C171.53 104.839 171.815 105.212 171.98 105.735C172.265 106.268 172.699 107.245 173.132 108.221C173.571 109.211 174.011 110.201 174.254 110.62C174.612 111.239 176.16 113.553 177.909 116.169L180.107 119.46C182.665 123.186 182.775 125.736 182.902 128.714L182.918 129.092C182.981 130.51 183.236 132.261 183.587 134.117C183.946 136.01 184.398 137.986 184.85 139.829C185.198 141.255 185.508 142.818 185.908 144.841C186.633 148.5 187.653 153.651 189.561 161.5L189.566 161.514C192.308 173.308 191.332 177.241 189.988 182.655L189.694 183.85C188.856 187.391 187.357 196.839 185.865 206.242C184.796 212.988 183.727 219.715 182.903 224.27C182.587 226.213 182.327 228.105 182.113 229.895C181.907 231.616 181.745 233.233 181.615 234.703V238.784C181.615 240.193 181.673 241.374 181.775 242.316C181.878 243.278 182.023 243.987 182.19 244.429L182.218 244.508C182.41 245.152 183.206 246.61 184.279 248.577C186.431 252.52 189.657 258.43 191.757 264.727C192.228 266.144 192.973 268.469 193.862 271.269L193.861 271.268ZM150.709 198.281V169.218C150.618 173.332 150.478 177.474 150.341 181.489C150.138 187.487 149.943 193.204 149.943 198.281C149.943 202.028 148.4 205.423 145.906 207.881C143.417 210.334 139.981 211.853 136.192 211.853H61.2029C57.5684 211.853 54.2523 210.451 51.7853 208.172C49.2976 205.872 47.6726 202.677 47.4566 199.126L47.4275 198.654L47.735 198.291C48.0174 197.957 48.2722 197.593 48.4977 197.205C48.7142 196.83 48.9095 196.42 49.0802 195.979C49.1544 195.701 49.2519 195.415 49.3484 195.129C49.4349 194.878 49.5207 194.625 49.5831 194.378L50.5921 190.411L50.5971 189.155C50.6847 188.122 50.6516 187.162 50.6228 186.344C50.6071 185.89 50.5919 185.47 50.5919 185.255V179.423L48.4133 176.201L49.1182 175.509C49.226 175.403 49.3353 175.295 49.4588 175.157C49.5498 175.062 49.6439 174.945 49.7495 174.788L50.5919 173.54V172.295L50.6569 172.103C50.7961 171.692 50.9028 171.138 51.021 170.52C51.0929 170.143 51.1702 169.742 51.2793 169.257V169.248C53.4831 159.783 51.7074 156.708 50.3051 154.282C49.6507 153.15 49.0637 152.134 48.8482 150.788L46.7862 151.34C46.9905 151.982 47.4868 152.477 48.0606 153.049C48.5299 153.515 49.0398 154.023 49.5422 154.688C49.6292 154.79 49.7852 154.998 49.8796 155.27C50.8247 156.945 51.7496 159.351 51.8904 162.197C51.9981 164.367 51.6513 166.791 50.5137 169.337C49.733 171.159 48.8312 172.505 47.8693 173.488C46.8764 174.503 45.8181 175.14 44.7552 175.52C44.4807 175.632 44.2036 175.721 43.9197 175.798L45.7667 175.959L45.93 176.023C46.3138 176.174 46.755 176.375 47.2141 176.629C47.6037 176.842 47.9836 177.086 48.3252 177.355L48.4458 177.45L48.5433 177.583C49.204 178.477 49.5283 179.566 49.6824 180.71C49.8266 181.781 49.8271 182.842 49.8271 183.835C49.8271 184.445 49.8395 184.848 49.8518 185.269C49.9304 187.912 50.0251 191.1 48.3108 195.722C48.2069 196.011 48.08 196.288 47.9374 196.553C46.5411 199.151 43.6101 200.433 40.7837 200.963C38.0529 201.475 35.3193 201.272 34.2748 200.89C34.149 200.845 34.0386 200.796 33.9442 200.746L33.2673 200.339C33.0046 200.176 32.8138 200.059 32.6719 199.99L32.577 199.943L32.4905 199.879L32.0438 199.669C30.5337 198.958 27.1585 197.367 25.59 194.158L25.5664 194.111C24.6858 192.084 24.4669 190.299 24.7261 188.488C24.9747 186.752 25.6684 185.034 26.6366 183.057L27.2416 181.849C28.7187 178.9 29.2653 177.808 31.2324 176.839L31.348 176.788C31.8498 176.603 32.3531 176.416 32.953 176.226C33.3751 176.092 33.788 175.977 34.1825 175.896C31.2137 175.017 30.1328 173.421 30.1284 173.415L30.0678 173.317C29.7564 172.754 29.2732 172.038 28.7423 171.25C26.7624 168.313 24.1292 164.406 24.6931 159.953V159.94C24.821 159.033 24.9776 158.184 25.1532 157.394L25.2156 157.12L24.4726 157.319L24.3043 158.162C24.2068 158.693 24.1153 159.264 24.0322 159.871V159.886C23.6769 162.277 24.2191 164.516 25.0885 166.497C25.9864 168.542 27.2592 170.36 28.2767 171.802L28.3323 171.89C28.5187 172.212 28.7258 172.519 28.9143 172.8C29.2902 173.36 29.6164 173.846 29.7537 174.338C29.8413 174.564 30.046 174.866 30.2498 175.168C30.3801 175.298 30.7953 175.984 30.9311 176.187L29.9013 176.84C29.1397 177.322 28.5897 177.893 28.1055 178.602C27.5864 179.363 27.1263 180.293 26.5812 181.428C26.507 181.638 26.4253 181.808 26.3411 181.986C26.2501 182.174 26.1531 182.378 26.102 182.579L26.0716 182.696L26.0092 182.82C25.1364 184.541 24.3266 186.345 24.0264 188.256C23.7336 190.121 23.9124 192.152 24.9749 194.423C25.7942 196.15 27.0655 197.429 28.3231 198.362C29.6132 199.32 30.9146 199.93 31.72 200.296L31.7672 200.317H31.866L32.1764 200.536C32.6777 200.888 33.9605 201.627 35.3232 202.255C36.2379 202.677 37.1707 203.041 37.8733 203.179L38.0125 203.216C38.6895 203.438 40.377 204.254 42.1252 205.187C43.6588 206.004 45.2662 206.927 46.2921 207.622L46.3015 207.626C46.8953 208.036 47.746 208.467 48.6534 208.888L46.9535 207.188L46.6814 207.009C46.1004 206.627 45.1975 206.084 44.1446 205.49C43.2333 204.977 42.246 204.449 41.3101 203.987L38.1667 202.438L41.6069 201.76C42.2185 201.64 42.8674 201.454 43.5005 201.204C44.0786 200.978 44.6286 200.705 45.1099 200.388L46.5511 199.44L46.9192 201.126C47.1011 201.961 47.3428 202.736 47.6443 203.479C47.949 204.229 48.316 204.952 48.7439 205.675L51.3702 210.111L51.3876 210.118C51.6138 210.229 51.8613 210.339 52.0936 210.434C52.35 210.539 52.6053 210.634 52.8006 210.698L53.2175 210.834L53.4453 211.208C53.8566 211.882 54.6379 213.423 55.043 214.221L55.5104 215.072C55.9723 215.92 56.2607 216.446 56.5166 216.782L56.5588 216.838C56.826 217.232 57.2357 217.907 57.6486 218.618C58.05 219.312 58.4551 220.043 58.7262 220.579L58.7833 220.692C58.799 220.756 58.8793 221.115 58.8916 221.127C58.9875 221.539 59.1105 222.062 59.3344 222.43L59.3758 222.498L59.4088 222.574C59.6057 223.028 60.2064 224.04 61.309 225.632C62.1862 226.899 63.3647 228.505 64.8829 230.444L65.4279 231.24L65.7019 231.563C66.2913 232.256 66.9595 233.043 67.6409 233.937L70.7814 238.064C72.4336 240.215 74.2423 242.483 76.0041 244.621C77.7157 246.697 79.4201 248.692 80.9291 250.373C82.935 252.605 84.6252 254.211 86.0154 255.394C87.3882 256.562 88.5144 257.355 89.3542 257.927L89.4388 257.985L89.5162 258.061C89.6525 258.196 89.7878 258.309 89.9113 258.401C90.0539 258.506 90.17 258.577 90.2513 258.617L90.4028 258.691L90.5297 258.808C91.6382 259.823 94.2208 262.289 96.2793 264.348C97.7401 265.81 98.9786 267.112 99.349 267.659L99.4282 267.789C99.6733 268.273 99.812 268.717 99.9305 269.095L100.015 269.36C100.132 269.706 100.25 270.052 100.418 270.398C100.576 270.722 100.786 271.059 101.097 271.417L101.143 271.473C101.364 271.763 102.197 273.008 103.279 274.655C104.434 276.421 105.759 278.456 106.876 280.195H107.706C107.659 280.077 107.613 279.982 107.57 279.913C106.417 278.064 104.974 275.81 103.815 274.046C102.783 272.476 101.935 271.226 101.653 270.893C101.195 270.352 101.028 269.826 100.823 269.179C100.653 268.659 100.452 268.028 99.9798 267.271C99.6319 266.713 98.4556 265.451 97.0627 264.039C94.7197 261.663 91.8366 258.948 91.042 258.244C90.7754 258.007 90.3512 257.708 89.8174 257.332C88.1348 256.146 85.4198 254.231 81.5216 249.895L81.5127 249.881C80.1972 248.38 78.7448 246.683 77.2682 244.919C75.8415 243.215 74.3359 241.383 72.842 239.525L69.6829 235.374C69.032 234.514 68.2782 233.552 67.5817 232.663C66.7708 231.627 66.0309 230.683 65.4812 229.938C64.1999 228.286 63.1662 226.891 62.3548 225.76C61.0416 223.936 60.317 222.795 60.0601 222.374L60.0045 222.283L59.972 222.202C59.6915 221.509 59.5719 220.762 59.5315 220.455C59.1404 219.75 57.8301 217.403 57.2245 216.504C56.8849 216.049 56.5313 215.405 56.1134 214.641L54.2024 211.235L56.9287 211.968C57.6416 212.159 58.3822 212.318 59.1281 212.422C59.7997 212.517 60.4958 212.571 61.2018 212.571H136.191C140.188 212.571 143.821 210.961 146.452 208.367C149.078 205.78 150.708 202.209 150.708 198.28L150.709 198.281ZM44.8947 203.192L45.0462 203.276L45.0035 203.142L44.8947 203.192ZM34.5005 198.316L35.0915 198.668C35.8507 198.95 38.0267 199.069 40.3477 198.634C42.5819 198.215 44.8625 197.268 45.8503 195.43C45.9379 195.267 46.0181 195.091 46.0865 194.906L46.091 194.901C47.6462 190.712 47.5586 187.771 47.4862 185.334C47.4689 184.741 47.4514 184.17 47.4514 183.835C47.4514 182.893 47.4508 181.888 47.3347 181.025C47.2364 180.299 47.0586 179.631 46.7296 179.122C46.5152 178.963 46.2907 178.822 46.0679 178.699C45.7968 178.546 45.5056 178.411 45.225 178.295L41.0041 177.928H37.5152C37.0153 177.928 36.5672 177.957 36.1637 177.999C35.7327 178.045 35.3287 178.107 34.9572 178.167L34.9342 178.172C34.5367 178.228 34.1086 178.34 33.6687 178.48C33.2691 178.607 32.7451 178.801 32.2186 178.995C31.0082 179.614 30.5531 180.524 29.3581 182.912L28.7578 184.11C27.8963 185.866 27.2828 187.371 27.0752 188.822C26.877 190.203 27.051 191.58 27.739 193.165C28.9523 195.591 31.7847 196.926 33.0557 197.524C33.3688 197.672 33.6097 197.784 33.7943 197.902C33.9715 197.995 34.1977 198.134 34.5003 198.315L34.5005 198.316ZM167.263 98.7072L165.632 89.6847L165.573 89.8205C165.48 90.1236 165.391 90.3844 165.287 90.6893C164.732 92.3263 163.753 95.2094 163.937 96.7564C164.064 97.5815 164.658 99.0478 165.458 100.554C166.192 101.936 167.083 103.307 167.928 104.198L167.966 104.234C168.061 104.111 168.142 103.976 168.202 103.856L167.262 98.7072H167.263ZM168.124 104.361C168.129 104.364 168.135 104.368 168.124 104.361V104.361Z" fill="#D8A04D"/>
<defs>
<filter id="filter0_d_681_125" x="0.693359" y="15.3232" width="211.307" height="154.067" filterUnits="userSpaceOnUse" color-interpolation-filters="sRGB">
<feFlood flood-opacity="0" result="BackgroundImageFix"/>
<feColorMatrix in="SourceAlpha" type="matrix" values="0 0 0 0 0 0 0 0 0 0 0 0 0 0 0 0 0 0 127 0" result="hardAlpha"/>
<feOffset dy="4"/>
<feGaussianBlur stdDeviation="2"/>
<feColorMatrix type="matrix" values="0 0 0 0 0 0 0 0 0 0 0 0 0 0 0 0 0 0 0.25 0"/>
<feBlend mode="normal" in2="BackgroundImageFix" result="effect1_dropShadow_681_125"/>
<feBlend mode="normal" in="SourceGraphic" in2="effect1_dropShadow_681_125" result="shape"/>
</filter>
</defs>
</svg>
