<svg width="220" height="290" viewBox="0 0 220 290" fill="none" xmlns="http://www.w3.org/2000/svg">
<path fill-rule="evenodd" clip-rule="evenodd" d="M6 83.4691L213.998 27.6106V119.1L6 174.958V83.4691V83.4691ZM34.5002 92.0999L33.0305 92.494V104.559L34.5002 104.165V98.4308L35.2752 98.2231L37.9561 103.239L39.5714 102.806L36.5509 97.1548L39.1999 90.8408L37.5847 91.2733L35.2752 96.7539L34.5002 96.9616V92.0999ZM43.4318 95.4722L42.3981 92.7134L41.4933 90.178L39.8943 90.6061L42.6723 97.7436L41.3478 102.33L42.8985 101.914L46.8394 88.7452L45.2887 89.161L44.3357 92.1781L43.4635 95.4638L43.4315 95.4722H43.4318ZM49.7144 100.088V89.4125L52.4435 88.6813V99.357L53.9132 98.963V86.8818L48.2444 88.4005V100.482L49.7141 100.088H49.7144ZM57.8059 97.9198L59.6956 91.47L60.8101 86.9562L60.8583 86.9434L60.6163 91.3533V97.1674L62.0861 96.7734V84.7087L60.0994 85.2406L58.7266 89.9373L57.5312 95.2481L57.4829 95.2609L57.7092 90.1287V85.8811L56.2395 86.2751V98.3398L57.8059 97.9201V97.9198ZM72.0191 94.1116V93.0458L73.4725 92.6563L75.2975 90.2291V84.108L73.4725 82.7718L72.0191 83.1613V81.9986L70.5494 82.3927V83.5554L69.0796 83.9494L67.2547 86.2633V92.3844L69.0796 93.8339L70.5494 93.4399V94.5056L72.0191 94.1116V94.1116ZM72.0191 91.5919V84.6151L72.8585 84.3901L73.8278 85.1001V90.0584L72.8428 91.3716L72.0191 91.5921V91.5919ZM69.6934 85.2385L70.5491 85.0088V91.9856L69.7088 92.2106L68.7239 91.4249V86.4665L69.6931 85.238L69.6934 85.2385ZM81.4186 79.48L77.6232 80.4975V92.6107L79.0929 92.2166V88.2432L81.4343 87.6158L83.292 85.164V80.8197L81.4188 79.48H81.4186ZM79.0929 86.7735V81.5734L80.8208 81.1104L81.8058 81.8342V84.9782L80.8046 86.315L79.0929 86.7735ZM84.6 90.7406L86.0859 90.3426L86.5544 87.0674L89.0736 86.3923L89.5421 89.4167L91.0275 89.0182L89.2351 77.3855L86.3927 78.1471L84.5997 90.7406H84.6ZM88.8641 84.9792L86.7647 85.5416L87.6532 79.2847L87.9597 79.2021L88.8644 84.9792H88.8641ZM94.0967 88.196V82.8661L96.8264 82.135V87.4648L98.2961 87.0708V75.0061L96.8264 75.4001V80.73L94.0967 81.4612V76.1313L92.627 76.5254V88.59L94.0967 88.196ZM100.622 86.4479L109.521 84.0632V71.982L108.051 72.376V83.068L105.806 83.6692V72.9772L104.336 73.3712V84.0632L102.092 84.6649V73.9891L100.622 74.3832V86.4479ZM113.413 83.0206L115.302 76.5702L116.417 72.0564L116.465 72.0436L116.223 76.4535V82.2676L117.693 81.8736V69.8089L115.706 70.3413L114.333 75.0375L113.138 80.3488L113.09 80.3617L113.316 75.2295V70.9818L111.846 71.3759V83.4405L113.413 83.0208V83.0206ZM121.504 75.1183L122.878 74.7507L123.911 75.4916V77.8011L122.99 79.0173L121.973 79.2899L121.068 78.5632V76.9642L119.598 77.3577V79.5379L121.343 80.9279L123.636 80.3134L125.397 77.9843V74.4152L124.186 73.5442L125.073 72.2405V69.5753L123.394 68.2002L121.343 68.7497L119.695 71.0164V72.3409L121.181 71.9424V71.2319L121.956 70.0876L122.78 69.8671L123.587 70.587V72.0567L122.732 73.3036L121.504 73.6323V75.1178L121.504 75.1183ZM130.21 72.2208L129.176 69.462L128.271 66.9258L126.672 67.3545L129.45 74.4912L128.126 79.0778L129.677 78.662L133.617 65.4933L132.067 65.9086L131.114 68.9256L130.242 72.2122L130.21 72.2206L130.21 72.2208ZM37.3099 112.907L38.7796 112.513V110.688L37.0192 109.319L34.7255 109.933L32.9655 112.246V120.742L34.7097 122.229L37.0192 121.61L38.7796 119.184V117.278L37.3099 117.688V119.028L36.3732 120.313L35.3557 120.586L34.4347 119.799V112.434L35.3394 111.239L36.3894 110.958L37.3099 111.664V112.907V112.907ZM42.446 113.356V109.432L45.9344 108.497V107.027C43.9802 107.551 42.9303 107.833 40.9761 108.356V120.469L46.1604 119.08V117.61L42.4458 118.606V114.826L45.3692 114.043V112.573L42.4458 113.357L42.446 113.356ZM49.4066 118.21L50.8763 117.816V107.027L53.024 106.452V105.127L47.2744 106.668V107.992L49.4063 107.421V118.21H49.4066ZM56.1574 116.401L58.0471 109.951L59.1616 105.437L59.2098 105.424L58.9678 109.834V115.648L60.4375 115.254V103.19L58.4508 103.722L57.0781 108.418L55.8826 113.729L55.8344 113.742L56.0607 108.61V104.362L54.5909 104.756V116.821L56.1574 116.401V116.401ZM71.5978 101.83L69.7728 100.495L67.4634 101.113L65.6384 103.427V111.971L67.4471 113.424L69.7728 112.801L71.5978 110.374V101.83V101.83ZM69.1431 111.516L68.0769 111.802L67.0919 111.017V103.636L68.0606 102.407L69.1588 102.112L70.1281 102.822V110.203L69.1431 111.516V111.516ZM73.7787 99.5662V111.679L78.8986 110.308V108.903L75.2484 109.88V99.1724L73.7787 99.5665V99.5662ZM81.9348 108.024V98.899L83.7115 98.4232L84.6645 99.1045V106.34L83.7115 107.548L81.9348 108.024V108.024ZM80.4651 109.888C81.7413 109.546 83.0333 109.2 84.3255 108.853L86.1342 106.544V98.1128L84.3255 96.7883L80.4651 97.8231V109.888V109.888ZM88.4116 107.759L92.2878 106.72L94.097 104.426V101.196L92.8853 100.325L93.7737 99.0212V96.0652L91.965 94.725L88.4114 95.6775V107.759H88.4116ZM89.8976 100.496V96.7815L91.3511 96.3919L92.2878 97.0777V98.8382L91.4321 100.085L89.8976 100.496V100.496ZM89.8976 101.982L91.5773 101.532L92.611 102.272V104.21L91.6743 105.398L89.8976 105.874V101.982V101.982ZM102.269 93.6116L100.444 92.2753L98.1349 92.8943L96.31 95.2082V103.752L98.1186 105.205L100.444 104.582L102.269 102.155V93.6116V93.6116ZM99.8146 103.297L98.7484 103.583L97.7634 102.797V95.4164L98.7321 94.1879L99.8303 93.8937L100.8 94.6031V101.984L99.8146 103.297V103.297ZM107.842 98.0619L110.62 89.6943L109.069 90.1101L108.084 93.1355L107.115 96.5447L106.162 93.6989L105.177 91.1527L103.593 91.5769L106.371 98.4552V102.945L107.841 102.552V98.0616L107.842 98.0619ZM33.1265 140.61L37.0026 139.572L38.8119 137.279V134.048L37.6001 133.177L38.4886 131.873V128.917L36.6799 127.577L33.1262 128.529V140.61H33.1265ZM34.6125 133.348V129.634L36.0659 129.244L37.0026 129.93V131.69L36.1469 132.937L34.6125 133.348V133.348ZM34.6125 134.834L36.2922 134.384L37.3259 135.125V137.062L36.3892 138.251L34.6125 138.726V134.835V134.834ZM40.2328 138.706L41.7188 138.308L42.1873 135.033L44.7064 134.358L45.1749 137.382L46.6604 136.984L44.8679 125.351L42.0255 126.113L40.2325 138.706H40.2328ZM44.497 132.945L42.3975 133.507L43.286 127.25L43.5925 127.167L44.4972 132.945H44.497ZM49.6976 125.542L51.183 125.144L52.1685 125.869V128.884L51.1673 130.237L49.6976 130.63V125.543V125.542ZM49.6976 132.1L50.9733 131.758L52.863 135.322L54.4782 134.889L52.3305 130.829L53.6388 129.074V124.875L51.781 123.499L48.2281 124.451V136.564L49.6979 136.17V132.1L49.6976 132.1ZM55.9477 134.495L59.8238 133.457L61.633 131.163V127.933L60.4213 127.062L61.3098 125.758V122.802L59.5011 121.462L55.9474 122.414V134.495H55.9477ZM57.4336 127.233V123.518L58.8871 123.129L59.8238 123.815V125.575L58.9681 126.821L57.4336 127.233V127.233ZM57.4336 128.719L59.1133 128.269L60.1471 129.009V130.947L59.2103 132.135L57.4336 132.611V128.719V128.719ZM65.3802 125.249V121.325L68.8686 120.39V118.92C66.9144 119.444 65.8644 119.725 63.9102 120.248V132.362L69.0946 130.973V129.503L65.3799 130.498V126.719L68.3034 125.936V124.466L65.3799 125.249L65.3802 125.249ZM71.9698 119.574L73.4552 119.176L74.4407 119.901V122.916L73.4395 124.269L71.9698 124.662V119.574V119.574ZM71.9698 126.132L73.2455 125.79L75.1352 129.353L76.7504 128.921L74.6027 124.86L75.9109 123.105V118.906L74.0532 117.53L70.5003 118.482V130.596L71.97 130.202V126.132H71.9698ZM79.3346 124.223L77.8811 124.613V126.826L79.6579 128.223L81.9673 127.604L83.744 125.255V121.992L79.4153 120.115V118.435L80.3038 117.245L81.3213 116.973L82.226 117.683V118.943L83.6795 118.553V116.696L81.951 115.35L79.6898 115.956L77.9619 118.228V121.264L82.3063 123.136V125.058L81.3533 126.315L80.2876 126.601L79.3346 125.855V124.224V124.223ZM87.4099 126.065V120.735L90.1396 120.004V125.333L91.6093 124.939V112.875L90.1396 113.269V118.599L87.4099 119.33V114L85.9402 114.394V126.459L87.4099 126.065ZM99.8298 112.304L98.0049 110.967L95.6954 111.586L93.8705 113.9V122.444L95.6792 123.897L98.0049 123.274L99.8298 120.847V112.304V112.304ZM97.3751 121.989L96.3089 122.275L95.3239 121.489V114.108L96.2927 112.879L97.3909 112.585L98.3601 113.295V120.676L97.3751 121.989V121.989ZM105.822 109.018L102.027 110.035V122.148L103.497 121.754V117.781L105.838 117.153L107.696 114.702V110.357L105.823 109.018H105.822ZM103.497 116.311V111.111L105.225 110.648L106.21 111.372V114.516L105.208 115.853L103.497 116.311Z" fill="#F5BE6C"/>
<path fill-rule="evenodd" clip-rule="evenodd" d="M148.284 39.9323C146.963 39.0726 145.387 38.5729 143.697 38.5729C140.424 38.5729 137.579 40.4451 136.179 43.1753L148.284 39.9323ZM92.9503 54.7594L91.1663 47.5828L108.615 50.0897L116.357 34.5195L129.375 44.9989L130.436 44.715L143.697 26.4757L152.633 38.7672L158.04 37.3182V36.6342L143.697 16.9105L128.84 37.3433L114.434 25.75L105.39 43.9426L83.6888 40.8252L87.5133 56.2163L92.9503 54.7594ZM121.189 47.1927V47.0147H115.562V48.7005L121.189 47.1927Z" fill="#D8A04D"/>
<g filter="url(#filter0_d_1_14)">
<path fill-rule="evenodd" clip-rule="evenodd" d="M10.6936 76.7989L214 22.3228V113.914L10.6936 168.39V168.389V76.7989Z" fill="white"/>
</g>
<path fill-rule="evenodd" clip-rule="evenodd" d="M114.582 140.554C113.662 137.775 112.101 135.228 109.97 133.097L104.309 127.441L103.232 128.519C103.445 125.949 103.313 123.353 102.8 120.786L100.718 110.372L100.404 110.528C101.109 108.353 101.496 106.071 101.496 103.768V97.656H94.9967C93.2742 97.656 91.5806 97.9152 89.9487 98.3767C90.1233 97.3878 90.2415 96.38 90.2415 95.3562C90.2415 90.6461 88.4092 86.2192 85.0789 82.8901L78.9877 76.7976L72.8952 82.8901C69.5648 86.2192 67.7344 90.6461 67.7344 95.3562C67.7344 99.1241 68.9383 102.716 71.0815 105.678C67.9247 104.145 64.4418 103.284 60.9214 103.284H56.479V109.395C56.479 115.19 58.8309 120.868 62.9307 124.968C63.2209 125.257 63.5368 125.519 63.842 125.792H62.1067V133.891C62.1067 138.492 63.8981 142.816 67.1513 146.068C69.0628 147.98 71.3486 149.369 73.8397 150.205L66.4621 152.047L67.0795 153.282L98.8023 144.782C99.1929 141.875 100.517 139.189 102.626 137.077L104.309 135.397L105.991 137.079C107.411 138.499 108.474 140.18 109.137 142.013L114.582 140.554ZM143.697 55.4551C148.351 55.4551 152.138 51.6681 152.138 47.0151C152.138 44.0513 150.602 41.4383 148.284 39.9321L136.181 43.1754C135.59 44.3282 135.256 45.6335 135.256 47.0151C135.256 51.6681 139.043 55.4551 143.697 55.4551H143.697ZM143.697 44.2007C145.25 44.2007 146.511 45.4612 146.511 47.0151C146.511 48.5674 145.25 49.8279 143.697 49.8279C142.144 49.8279 140.883 48.5674 140.883 47.0151C140.883 45.4612 142.144 44.2007 143.697 44.2007ZM99.3484 80.7763L107.749 76.0801C118.719 69.9482 131.151 66.7084 143.697 66.7084C148.521 66.7084 153.326 67.1887 158.041 68.1264V62.3954C153.319 61.5256 148.516 61.0812 143.697 61.0812C130.191 61.0812 116.813 64.5675 105.004 71.1678L98.0038 75.0852L92.9513 54.7588L87.5144 56.2162L93.6169 80.7763H99.3484ZM129.376 44.9988L129.915 45.4332L130.438 44.7143L129.376 44.9988V44.9988ZM152.633 38.7671L157.478 45.4303L158.041 44.9781V37.3181L152.633 38.7671V38.7671ZM98.6812 61.0812H104.309V55.4551H98.6812V61.0812ZM115.562 52.6423H121.19V47.1923L115.562 48.7003V52.6423ZM97.282 121.892C98.1288 126.111 97.7277 130.447 96.1303 134.44C94.7767 137.826 92.6086 140.751 89.8503 143.079C89.099 141.649 88.4165 140.194 87.7648 138.725C87.56 138.183 87.3063 137.661 87.0533 137.143C87.0399 137.111 87.032 137.077 87.0189 137.047H87.4274V133.867C87.4274 132.476 87.5962 131.084 87.9376 129.723C89.1291 124.964 92.2982 120.958 96.647 118.704L97.2817 121.892L97.282 121.892ZM87.8463 105.451C89.9694 104.032 92.4408 103.284 94.9967 103.284H95.8681V103.767C95.8681 108.083 94.1182 112.309 91.066 115.362C88.889 117.54 86.1095 119.04 83.1289 119.73C82.847 118.815 82.5296 117.917 82.141 117.049C82.0624 116.209 82.0092 115.362 81.9609 114.514L82.7658 112.101C83.6692 109.393 85.4729 107.028 87.8463 105.451V105.451ZM83.4634 125.406C83.4584 125.42 83.45 125.434 83.4461 125.442C83.4437 125.434 83.4406 125.42 83.4406 125.409C83.45 125.409 83.4553 125.406 83.4637 125.406H83.4634ZM76.8749 86.8675L78.9879 84.7534L81.0992 86.8675C83.3344 89.1006 84.6151 92.196 84.6151 95.3562C84.6151 99.3773 82.6177 103.112 79.2724 105.343L78.9879 105.532L78.704 105.343C75.3569 103.11 73.3603 99.375 73.3603 95.3562C73.3603 92.196 74.6409 89.1004 76.8751 86.8675H76.8749ZM66.9078 120.989C63.8559 117.936 62.1067 113.711 62.1067 109.395V108.954C65.4868 109.183 68.7804 110.402 71.4939 112.436C73.7147 114.099 75.4594 116.29 76.6811 118.754C76.9354 121.112 77.3025 123.444 77.7738 125.754C73.7163 125.568 69.7906 123.869 66.9078 120.989V120.989ZM71.1292 142.091C68.9713 139.93 67.7344 136.944 67.7344 133.891V131.42H69.0195C72.8818 131.42 76.5118 132.921 79.243 135.653C80.2959 136.706 81.1516 137.92 81.8314 139.232C82.0571 139.78 82.3219 140.315 82.5581 140.861C82.7393 141.355 82.9178 141.854 83.0447 142.369L83.8231 145.486H79.3285C76.275 145.486 73.2871 144.247 71.1292 142.091V142.091Z" fill="#666666" fill-opacity="0.101961"/>
<path fill-rule="evenodd" clip-rule="evenodd" d="M157.897 164.778C157.897 158.586 157.897 158.586 157.897 158.586C158.028 159.232 158.159 159.747 158.159 160.006C158.29 161.167 158.421 163.231 158.551 163.875C158.42 164.006 158.159 164.392 157.897 164.778V164.778ZM201.805 288.383C199.89 282.255 197.84 275.762 196.634 272.097C193.494 262.682 187.735 254.039 187.081 251.846C186.689 250.815 186.427 248.75 186.427 245.783C186.427 245.783 186.427 245.783 186.427 241.656C186.689 238.69 187.081 235.078 187.735 231.079C189.699 220.244 193.101 196.638 194.541 190.576C195.98 184.643 197.289 181.161 194.41 168.777C191.4 156.394 190.615 150.847 189.699 147.107C188.783 143.366 187.866 139.11 187.735 136.142C187.604 133.176 187.604 130.724 185.118 127.114C182.631 123.373 179.752 119.116 179.228 118.213C178.706 117.31 177.396 114.086 176.873 113.182C176.743 112.666 176.349 112.28 176.088 111.892C175.826 112.537 175.171 113.312 174.255 113.441C174.125 113.569 174.125 113.569 173.994 113.569C173.471 113.569 172.816 113.312 172.293 112.666C170.461 110.732 168.105 106.217 167.712 104.024C167.451 101.702 168.89 97.7034 169.544 96.1555C170.329 94.2205 170.591 92.4152 170.722 91.8987C170.722 91.383 170.591 90.9958 170.591 90.7376C170.329 90.2219 169.544 88.6746 167.32 88.6746C167.189 88.6746 167.189 88.6746 167.058 88.803C164.178 88.932 158.42 89.4485 155.017 97.0584C151.746 104.54 152.923 117.051 153.971 122.212C154.887 127.5 155.671 131.885 155.803 133.433C156.064 134.723 156.588 135.626 157.111 136.271C159.075 137.948 160.645 137.69 161.692 137.561C162.084 137.433 162.346 137.433 162.608 137.433C162.608 137.433 162.608 137.433 162.478 138.464C162.346 138.464 162.084 138.464 161.823 138.593C161.43 138.593 160.907 138.721 160.383 138.721C159.729 138.721 158.944 138.593 158.028 138.076C158.028 138.464 158.028 138.85 158.028 139.109C157.897 139.625 156.588 142.204 157.243 145.945C157.635 148.525 158.028 152.652 158.159 155.103C158.42 156.136 159.075 158.843 159.206 160.005C159.336 161.294 159.598 164.004 159.598 164.004C159.598 164.004 159.598 164.004 159.598 164.132C159.598 164.132 159.598 164.132 159.467 164.26C159.467 164.391 158.682 165.422 157.897 166.583C157.897 166.583 157.897 166.583 157.897 205.279C157.897 213.793 150.829 220.758 142.192 220.758C142.192 220.758 142.192 220.758 67.2027 220.758C65.6331 220.758 64.0621 220.5 62.6231 220.113C63.2775 221.274 63.8 222.306 64.1922 222.822C64.9784 223.983 66.6799 227.078 66.6799 227.078C66.6799 227.078 66.8107 228.111 67.0721 228.756C67.4656 229.4 69.0347 231.852 72.4379 236.237C73.4844 237.656 75.0554 239.59 76.6255 241.655C76.6255 241.655 76.6255 241.655 79.766 245.782C82.7757 249.523 85.9175 253.263 88.4042 256.101C93.5072 261.777 96.518 263.195 97.8267 264.357C99.1355 265.517 105.941 271.967 106.987 273.644C108.035 275.321 107.904 276.353 108.558 277.126C109.213 277.901 112.485 282.931 114.578 286.286C114.837 286.701 115.07 287.44 115.28 288.382H112.136C112.08 288.205 112.021 288.062 111.961 287.961C109.474 284.092 106.595 279.706 106.202 279.191C105.417 278.287 105.155 277.514 104.893 276.739C104.763 276.353 104.632 275.837 104.371 275.321C103.585 274.16 97.564 268.355 95.7323 266.678C95.4706 266.55 95.0784 266.291 94.6862 265.904C92.984 264.743 90.1051 262.68 86.0481 258.165C83.0378 254.812 79.1121 250.039 75.8403 245.782C75.8403 245.782 75.8403 245.782 72.6998 241.655C71.9141 240.624 71.1289 239.72 70.4745 238.946C70.4745 238.946 70.4745 238.946 69.951 238.172C66.4177 233.657 64.7165 230.949 64.3238 230.046C63.9303 229.4 63.7997 228.627 63.6689 228.111C63.1459 227.079 62.0985 225.273 61.5755 224.499C61.182 223.983 60.7898 223.209 60.004 221.79C59.6118 221.017 58.8272 219.468 58.4345 218.824C58.0422 218.696 57.3879 218.437 56.8635 218.179C55.1626 217.405 52.9378 216.502 51.6286 215.599C49.5352 214.179 44.824 211.73 43.6461 211.342C41.683 210.956 38.4117 209.149 37.4946 208.504C37.4946 208.504 37.3638 208.504 37.2329 208.375C35.5315 207.602 31.7366 205.796 29.9048 201.926C27.549 196.896 29.1191 192.897 30.9514 189.285C31.0828 188.77 31.3441 188.382 31.475 187.996C32.6524 185.544 33.437 183.996 35.2704 182.836C35.0087 182.449 34.7463 182.062 34.6155 181.675C34.4846 181.159 33.8303 180.385 33.3067 179.482C31.2133 176.515 28.0718 172.001 28.858 166.712C29.0268 165.474 29.2358 164.361 29.472 163.357L32.9048 162.438C32.4956 163.706 32.1299 165.244 31.8672 167.1C31.2133 172.258 35.5312 176.903 37.1027 179.74C37.1027 179.74 39.1961 182.836 46.262 182.19C46.9174 182.19 47.5718 182.062 48.2262 181.934C49.0108 181.804 49.6663 181.675 50.3196 181.417C52.1524 180.773 53.9849 179.225 55.4237 175.871C57.9109 170.324 56.3397 165.422 54.7688 162.713C54.7688 162.584 54.6385 162.456 54.6385 162.456C53.199 160.52 51.4975 159.876 51.4975 157.682V157.455L55.9478 156.262V156.65C55.9478 161.647 61.8775 161.726 58.4339 176.515C58.1723 177.676 58.0417 178.707 57.779 179.481C57.779 179.481 57.779 179.481 57.779 189.672C57.779 190.058 57.779 190.446 57.779 190.833C57.779 191.22 57.779 191.736 57.779 192.252C57.779 193.283 57.9109 194.703 57.779 196.25V200.166C57.3058 200.995 56.8801 201.896 56.7364 202.699L56.7325 202.7C56.7325 202.7 56.7325 202.7 56.7325 201.668C56.6016 202.184 56.3397 202.829 56.2089 203.344C55.8162 204.377 55.2929 205.279 54.6385 206.054C55.0307 212.503 60.5273 217.662 67.2016 217.662C67.2016 217.662 67.2016 217.662 142.191 217.662C149.127 217.662 154.754 212.116 154.754 205.279C154.754 188.14 157.095 161.221 154.1 146.461C153.577 142.72 154.493 139.881 154.885 138.721C154.885 138.592 154.885 138.592 154.885 138.592C147.724 130.137 147.683 100.155 153.889 92.7324C154.163 92.3148 154.448 91.9131 154.754 91.5112V90.575C154.933 89.5429 154.92 88.2349 154.754 86.7319V23.6625C154.754 16.8259 149.127 11.28 142.191 11.28C142.191 11.28 142.191 11.28 67.2016 11.28C60.2657 11.28 54.6385 16.8259 54.6385 23.6625V65.0223L50.4077 66.1554C50.6738 65.7666 51.066 65.468 51.4975 65.3259C51.4975 65.3259 51.4975 65.3259 51.4975 60.9406C50.7123 60.6829 50.0579 59.9085 50.0579 59.0061C50.0579 59.0061 50.0579 59.0061 50.0579 49.7188C50.0579 48.8159 50.7123 48.042 51.4975 47.7837C51.4975 47.7837 51.4975 47.7837 51.4975 23.6625C51.4975 15.1502 58.4339 8.18436 67.2016 8.18436C67.2016 8.18436 67.2016 8.18436 142.191 8.18436C150.828 8.18436 157.896 15.1502 157.896 23.6625C157.896 23.6625 157.896 23.6625 157.896 46.1069C158.158 46.3651 158.288 46.7524 158.288 47.2675C158.288 47.2675 158.288 47.2675 158.288 56.4258C158.288 56.9428 158.157 57.3293 157.896 57.7165C157.896 57.7165 157.896 57.7165 157.896 88.5448C158.55 88.0286 159.205 87.6419 159.858 87.3831C162.476 85.9651 164.963 85.7068 166.925 85.7068C167.057 85.7068 167.188 85.5784 167.319 85.5784C170.066 85.5784 171.768 86.9964 172.815 88.4153C173.076 88.5448 173.469 88.8025 173.731 89.0607C174.778 90.0921 175.17 91.5115 175.694 94.6077C175.956 96.5422 177.788 106.732 178.442 109.827C178.835 110.344 179.359 110.988 179.751 111.763C180.013 112.149 180.275 112.795 180.536 113.569C180.929 114.472 181.714 116.149 181.976 116.664C182.368 117.31 184.593 120.663 187.734 125.308C190.614 129.563 190.744 132.659 190.876 135.626C190.876 135.626 190.876 135.626 190.876 136.013C191.006 138.206 191.53 141.56 192.708 146.332C193.1 147.88 193.493 149.557 193.885 151.62C194.54 155.361 195.587 160.263 197.419 168.132C200.298 180.127 199.251 184.384 197.942 189.801C197.811 190.317 197.681 190.833 197.55 191.349C196.765 194.833 195.194 204.893 193.624 214.567C192.576 221.146 191.53 227.208 190.876 231.594C190.09 235.463 189.828 238.817 189.698 241.655C189.698 241.655 189.698 241.655 189.566 245.782C189.566 248.491 189.828 250.168 190.09 250.942C190.221 251.458 191.137 253.134 191.922 254.554C194.147 258.552 197.419 264.614 199.644 271.193C200.282 273.108 204.228 282.954 206.234 288.382H201.804L201.805 288.383ZM53.3319 213.02C52.154 212.246 49.9292 210.957 47.8355 209.925C49.1443 209.667 50.5833 209.15 51.7607 208.376C52.1542 210.182 52.8086 211.731 53.7243 213.278C53.593 213.149 53.4627 213.02 53.3321 213.02L53.3319 213.02ZM40.5066 206.701C39.8523 206.312 39.4588 206.055 39.1974 205.926C38.6738 205.539 34.3559 204.12 32.6537 200.637C31.0841 197.026 31.8685 194.316 33.7002 190.576C35.5325 186.965 35.926 185.804 37.7578 184.901C38.8044 184.513 39.8523 184.127 40.7675 183.997C41.5527 183.869 42.469 183.74 43.5158 183.74C44.5637 183.74 45.7411 183.74 46.919 183.74C47.0493 183.74 47.0493 183.74 47.0493 183.74C51.4991 184.127 51.4991 184.127 51.4991 184.127C52.154 184.385 52.9392 184.772 53.593 185.288C54.6401 186.706 54.6401 188.899 54.6401 190.835C54.6401 193.672 55.1636 197.026 53.2005 202.314C51.2374 207.604 41.9449 207.474 40.5066 206.701V206.701ZM56.734 182.45C56.734 184.513 56.734 184.513 56.734 184.513C56.4719 184.127 56.2105 183.739 55.9494 183.352C56.2102 183.095 56.4719 182.837 56.734 182.45ZM171.77 91.5125C172.031 92.0282 172.293 93.0604 172.555 95.1239C172.947 97.3164 175.041 108.926 175.434 110.989C175.303 111.377 174.78 112.409 174.125 112.538C173.732 112.538 173.471 112.409 173.078 112.021C171.115 109.958 169.021 105.702 168.76 103.895C168.498 101.703 170.068 97.7039 170.461 96.4148C171.378 94.3507 171.639 92.4157 171.639 91.8992C171.77 91.7702 171.77 91.6415 171.77 91.5125H171.77Z" fill="#D8A04D"/>
<path d="M156.71 161.099V151.624L156.601 150.492C156.447 148.951 156.261 147.382 156.069 146.122C155.468 142.643 156.411 140.091 156.793 139.062L156.84 138.925V137.57C156.676 137.448 156.511 137.317 156.342 137.172L156.262 137.104L156.193 137.019C155.885 136.639 155.572 136.176 155.297 135.615C155.027 135.065 154.796 134.419 154.643 133.666L154.62 133.532C154.511 132.24 153.916 128.825 153.173 124.549L152.802 122.413C152.175 119.293 151.502 113.588 151.739 107.881C151.907 103.851 152.528 99.7969 153.931 96.5864L153.936 96.577C155.771 92.473 158.273 90.265 160.709 89.064C162.922 87.9742 165.041 87.7306 166.568 87.6431C166.768 87.4881 166.898 87.4876 167.32 87.4876C168.885 87.4876 169.911 88.0617 170.581 88.702V87.8074C170.43 87.6942 170.27 87.587 170.102 87.4876C169.414 87.0807 168.563 86.8012 167.512 86.7708C167.357 86.8403 167.181 86.8967 166.926 86.8967C165.997 86.8967 164.955 86.9557 163.87 87.1751C162.787 87.3945 161.623 87.7783 160.421 88.4288L160.296 88.4893C160.021 88.5981 159.748 88.7329 159.48 88.8912C159.187 89.064 158.902 89.2598 158.63 89.4748L156.709 90.9923V57.3569L156.913 57.0549C157.039 56.8698 157.101 56.6811 157.101 56.4275V47.2692C157.101 47.1368 157.09 47.0375 157.068 46.973L157.067 46.9533L156.709 46.6004V23.6644C156.709 19.7366 155.079 16.1656 152.453 13.5778C149.822 10.9844 146.189 9.37445 142.192 9.37445H67.2031C63.1584 9.37445 59.5376 10.9721 56.9258 13.5466C54.2989 16.1355 52.6871 19.7193 52.6871 23.6647V48.6427L51.8655 48.9133C51.6927 48.9699 51.5299 49.0905 51.4119 49.2489C51.311 49.3847 51.2475 49.5485 51.2475 49.7208V59.0081C51.2475 59.1798 51.311 59.3442 51.4119 59.48C51.5291 59.6378 51.6919 59.7584 51.8655 59.815L52.6871 60.085V64.3193L53.4521 64.1146V23.6644C53.4521 19.9178 54.996 16.523 57.49 14.0649C59.979 11.6123 63.4148 10.0938 67.2033 10.0938H142.193C145.981 10.0938 149.417 11.6126 151.906 14.0649C154.4 16.523 155.944 19.9178 155.944 23.6644V86.6919C156.029 87.4792 156.073 88.2083 156.073 88.8666C156.073 89.5097 156.031 90.1114 155.944 90.6614V91.9033C155.574 92.3904 155.169 93.0482 154.8 93.4954C151.811 97.0709 150.366 106.454 150.571 115.904C150.767 124.934 152.477 133.915 155.792 137.829L156.075 138.164V138.906L156.01 139.099C155.826 139.646 155.517 140.588 155.32 141.811C155.124 143.034 155.033 144.561 155.275 146.3C156.113 150.463 156.535 155.551 156.709 161.099L156.71 161.099ZM200.673 288.736C199.527 285.069 198.43 281.576 197.607 278.983C196.867 276.652 196.148 274.416 195.507 272.468C193.483 266.386 190.315 260.581 188.201 256.708C187.059 254.616 186.21 253.062 185.949 252.202C185.724 251.582 185.539 250.695 185.418 249.565C185.304 248.511 185.239 247.243 185.239 245.783C185.239 244.507 185.135 242.774 185.244 241.554C185.375 240.073 185.54 238.419 185.755 236.615C185.966 234.859 186.23 232.945 186.566 230.889L186.571 230.87C187.383 226.389 188.454 219.64 189.527 212.87C191.034 203.372 192.548 193.829 193.385 190.302L193.687 189.088C194.952 183.993 195.871 180.292 193.255 169.042C191.309 161.027 190.297 155.922 189.58 152.295C189.172 150.235 188.857 148.644 188.549 147.385C188.085 145.488 187.62 143.464 187.259 141.553C186.89 139.605 186.621 137.743 186.553 136.194L186.536 135.816C186.426 133.197 186.329 130.96 184.145 127.787L181.942 124.486C180.163 121.825 178.589 119.471 178.204 118.807C177.925 118.325 177.447 117.25 176.971 116.177C176.587 115.312 176.202 114.446 175.95 113.961C175.627 114.209 175.254 114.409 174.835 114.527C174.579 114.758 174.476 114.758 173.994 114.758C173.536 114.758 173.024 114.641 172.526 114.378C172.14 114.172 171.755 113.871 171.412 113.46C170.438 112.423 169.345 110.751 168.446 109.054C167.516 107.298 166.769 105.466 166.549 104.233L166.534 104.154C166.413 103.08 166.593 101.752 166.898 100.442C167.33 98.582 168.035 96.6923 168.448 95.7121C169.033 94.2625 169.31 92.8919 169.461 92.145L169.533 91.7966C169.524 91.6277 169.496 91.4665 169.472 91.3302L169.431 91.0777C169.2 90.6737 168.701 90.0002 167.651 89.8817L167.564 89.9664L167.11 89.9871C165.776 90.0466 163.775 90.1953 161.759 91.1886C159.749 92.1791 157.67 94.0345 156.104 97.5326C154.83 100.447 154.263 104.206 154.106 107.974C153.877 113.497 154.526 118.998 155.132 121.981L155.512 124.149C156.259 128.449 156.858 131.891 156.983 133.294C157.091 133.79 157.246 134.214 157.422 134.576C157.585 134.908 157.773 135.195 157.963 135.44C159.428 136.649 160.629 136.499 161.451 136.396C161.68 136.33 161.883 136.292 162.07 136.272C162.303 136.247 162.457 136.246 162.609 136.246H163.951L163.521 139.653L162.348 139.657L162.094 139.783H161.824C161.689 139.783 161.528 139.804 161.358 139.826C161.047 139.866 160.711 139.911 160.384 139.911C159.992 139.911 159.554 139.872 159.064 139.755L159.013 139.883C158.697 140.735 157.908 142.863 158.412 145.742L158.417 145.77C158.602 146.988 158.793 148.611 158.958 150.26C159.127 151.951 159.265 153.643 159.336 154.919C159.501 155.575 159.788 156.758 160.023 157.857C160.187 158.631 160.328 159.372 160.385 159.877C160.385 161.377 160.786 163.027 160.786 164.627L160.415 164.993C160.248 165.295 160.005 165.638 159.721 166.04L159.086 166.949V205.282C159.086 209.866 157.182 214.035 154.115 217.058C151.053 220.075 146.833 221.948 142.193 221.948H67.2036C66.4488 221.948 65.6817 221.89 64.9201 221.788C65.0014 221.92 65.0732 222.029 65.1351 222.11L65.1721 222.161C66.0341 223.434 67.7114 226.493 67.7161 226.501L67.8092 226.667L67.8456 226.849C67.8456 226.851 67.9956 227.804 68.1458 228.24C68.4219 228.685 69.0831 229.708 70.2822 231.379C71.0622 232.474 72.081 233.846 73.3761 235.515L73.3947 235.539C73.9783 236.33 74.6798 237.226 75.4493 238.208C76.0903 239.026 76.7788 239.905 77.566 240.94L80.701 245.055C82.1422 246.847 83.6373 248.666 85.0887 250.399C86.6258 252.235 88.0598 253.912 89.2855 255.311C93.0114 259.453 95.5872 261.269 97.1833 262.394C97.7603 262.8 98.218 263.123 98.6121 263.473C99.4371 264.204 102.392 266.984 104.754 269.38C106.255 270.9 107.547 272.301 107.995 273.02C108.629 274.035 108.879 274.82 109.084 275.466C109.204 275.857 109.305 276.175 109.464 276.363C109.792 276.751 110.702 278.088 111.793 279.749C113.053 281.667 114.511 283.939 115.586 285.662C115.768 285.954 115.932 286.328 116.076 286.768C116.198 287.136 116.319 287.598 116.437 288.129L116.759 289.572H111.275L111.01 288.746L110.949 288.58C109.596 286.474 108.271 284.435 107.3 282.955C106.258 281.375 105.477 280.203 105.278 279.933C104.822 279.403 104.515 278.91 104.285 278.439C104.061 277.979 103.916 277.55 103.771 277.122L103.669 276.801C103.583 276.527 103.483 276.206 103.345 275.919C103.005 275.465 101.911 274.329 100.602 273.019C98.5998 271.016 96.1681 268.689 95.049 267.657C94.8812 267.564 94.6942 267.445 94.5023 267.304C94.3222 267.171 94.1298 267.012 93.9389 266.83C93.0858 266.247 91.9454 265.436 90.4865 264.195C88.9976 262.928 87.2185 261.243 85.1679 258.961C83.6947 257.32 81.9644 255.293 80.1775 253.124C78.3777 250.941 76.5515 248.65 74.9045 246.508L71.7596 242.376C71.122 241.539 70.4699 240.771 69.8947 240.094C69.502 239.631 69.3274 239.367 68.9688 238.837C67.4372 236.877 66.2485 235.257 65.3629 233.978C64.2165 232.323 63.5445 231.188 63.2734 230.598C62.875 229.917 62.7116 229.219 62.5826 228.666L62.5551 228.534C62.3066 228.051 61.9529 227.417 61.6 226.806C61.2267 226.163 60.8497 225.544 60.5933 225.165C60.2543 224.706 59.935 224.124 59.4356 223.213C59.2728 222.918 59.0942 222.615 58.9445 222.315C58.6184 221.676 58.0264 220.508 57.6284 219.796L57.1951 219.625C56.9054 219.506 56.6042 219.373 56.3409 219.244L55.2959 218.78C53.7756 218.106 52.1027 217.366 50.9573 216.576C50.0112 215.934 48.4851 215.06 47.0133 214.276C45.4403 213.437 43.9559 212.71 43.3435 212.493C42.4529 212.307 41.3691 211.887 40.3314 211.409C38.9587 210.776 37.6298 210.019 36.9725 209.584C36.8608 209.541 36.7413 209.483 36.6223 209.402C35.7215 208.99 34.3375 208.321 32.9139 207.265C31.3925 206.136 29.8476 204.575 28.8346 202.434C27.5439 199.673 27.33 197.189 27.6902 194.895C28.036 192.694 28.9006 190.726 29.8368 188.869C29.9391 188.518 30.0736 188.235 30.1989 187.971C30.2639 187.829 30.3273 187.697 30.3538 187.618L30.4094 187.489C31.0234 186.209 31.5375 185.163 32.1497 184.266C32.5959 183.612 33.089 183.041 33.6925 182.53C33.6173 182.379 33.5499 182.223 33.4943 182.058L33.4668 181.97C33.4348 181.843 33.2091 181.508 32.9482 181.119C32.7435 180.814 32.5201 180.483 32.3146 180.132C31.2434 178.614 29.9097 176.701 28.9182 174.444C27.8918 172.105 27.2558 169.441 27.6857 166.543C27.7733 165.921 27.8703 165.317 27.977 164.737C28.0897 164.121 28.2048 163.575 28.3184 163.091L28.1377 163.912L34.2683 162.075L34.0341 162.803C33.8299 163.436 33.6375 164.136 33.4663 164.906C33.3092 165.611 33.1661 166.396 33.0431 167.265C32.598 170.821 34.9462 174.305 36.7117 176.925C37.2397 177.708 37.7207 178.422 38.104 179.104C38.3337 179.402 40.2132 181.558 46.1573 181.015L46.2611 181.005C46.5343 181.005 46.8054 180.978 47.0749 180.939C47.3622 180.898 47.6815 180.835 48.0009 180.772L48.0378 180.768C48.3868 180.711 48.7168 180.65 49.0548 180.571C49.3398 180.504 49.6132 180.423 49.8853 180.315L49.932 180.302C50.6852 180.038 51.4455 179.58 52.1722 178.837C52.9427 178.05 53.6784 176.941 54.3351 175.41L54.3445 175.391C55.3193 173.217 55.6168 171.153 55.5253 169.31C55.4019 166.829 54.5729 164.738 53.7452 163.31L53.5824 163.029C53.1981 162.532 52.7794 162.114 52.3916 161.729C51.2496 160.592 50.3113 159.658 50.3113 157.686L57.1379 155.947V156.654C57.1379 157.986 57.7053 158.968 58.3567 160.096C59.9675 162.882 62.0069 166.413 59.5913 176.788C59.5066 177.157 59.4259 177.575 59.3512 177.967C59.2321 178.588 59.1239 179.152 58.9689 179.662V192.256C58.9689 192.671 58.9791 192.957 58.9896 193.262C59.0206 194.157 59.057 195.199 58.9689 196.29V200.476L58.8106 200.755C58.5961 201.131 58.3914 201.524 58.2265 201.91C58.0733 202.269 57.9559 202.612 57.9027 202.912L57.7719 203.642L57.3191 203.771C57.1036 204.34 56.8459 204.881 56.5491 205.394C56.3386 205.758 56.1087 206.103 55.8593 206.431C56.1388 209.17 57.4441 211.63 59.391 213.429C61.4338 215.317 64.1853 216.478 67.2036 216.478H142.193C145.34 216.478 148.187 215.222 150.245 213.194C152.297 211.171 153.568 208.373 153.568 205.283C153.568 200.428 153.767 194.568 153.976 188.417C154.479 173.591 155.041 157.044 152.942 146.696L152.928 146.627C152.649 144.626 152.755 142.861 152.983 141.441C153.156 140.366 153.397 139.497 153.593 138.873C150.168 134.327 148.405 125.114 148.205 115.952C147.99 106.059 149.607 96.1014 152.928 92.0422L153.342 91.439L153.568 91.1281V90.4894L153.587 90.3793C153.662 89.9483 153.697 89.44 153.697 88.8684C153.697 88.2445 153.656 87.5731 153.578 86.8655C151.781 70.5877 153.568 41.345 153.568 23.6663C153.568 20.5764 152.298 17.7788 150.245 15.7561C148.187 13.728 145.34 12.472 142.193 12.472H67.2039C64.0571 12.472 61.2102 13.728 59.1516 15.7561C57.0994 17.7788 55.8287 20.5764 55.8287 23.6663V64.7073L48.6513 66.6306L49.4307 65.4907C49.6315 65.1965 49.8869 64.9312 50.1776 64.7099L50.3111 64.6135V61.6628C50.0057 61.4536 49.7325 61.1919 49.5096 60.8928C49.1169 60.3642 48.8715 59.7125 48.8715 59.0099V49.7226C48.8715 49.0195 49.1161 48.3685 49.5096 47.8397C49.7325 47.54 50.0057 47.2784 50.3111 47.0692V23.6663C50.3111 19.0671 52.1945 14.8844 55.2647 11.859C58.3069 8.8606 62.5139 7 67.2033 7H142.193C146.832 7 151.054 8.87319 154.115 11.8905C157.182 14.9125 159.086 19.0817 159.086 23.6663V45.7201C159.178 45.8721 159.254 46.037 159.314 46.2145C159.424 46.5349 159.478 46.8886 159.478 47.2713V56.4296C159.478 57.0615 159.347 57.5661 159.086 58.0488V86.4261L159.376 86.3015C160.765 85.5601 162.128 85.1158 163.408 84.857C164.624 84.6106 165.738 84.5327 166.72 84.5235C166.876 84.4527 167.051 84.394 167.32 84.394C168.927 84.394 170.241 84.8161 171.309 85.4479C172.271 86.0158 173.023 86.7527 173.608 87.5015C173.734 87.5757 173.866 87.6604 173.993 87.7495C174.187 87.8863 174.388 88.0481 174.562 88.2204C175.225 88.8718 175.675 89.6285 176.032 90.6834C176.351 91.6217 176.593 92.8065 176.865 94.4167L176.87 94.4537C177.005 95.446 177.544 98.5655 178.124 101.783C178.649 104.691 179.214 107.711 179.55 109.334C179.943 109.845 180.412 110.459 180.789 111.19C180.948 111.44 181.097 111.733 181.236 112.06C181.377 112.391 181.515 112.762 181.649 113.157C181.803 113.509 182.064 114.078 182.336 114.662C182.623 115.285 182.895 115.857 183.027 116.118C183.251 116.478 183.939 117.522 184.979 119.084C185.894 120.457 187.162 122.344 188.719 124.648C191.772 129.16 191.92 132.425 192.058 135.548C192.07 135.703 192.065 135.86 192.065 136.016C192.133 137.117 192.308 138.537 192.624 140.317C192.914 141.95 193.318 143.854 193.858 146.048C194.048 146.793 194.245 147.6 194.453 148.526C194.653 149.416 194.853 150.367 195.05 151.405L195.055 151.419C195.383 153.291 195.806 155.44 196.372 158.085C196.937 160.726 197.655 163.912 198.575 167.865C201.506 180.095 200.446 184.484 199.107 190.03L198.701 191.64C198.064 194.477 196.907 201.653 195.656 209.417L194.794 214.756C194.335 217.641 193.908 220.235 193.509 222.655C192.954 226.035 192.451 229.084 192.05 231.769L192.036 231.829C191.655 233.709 191.398 235.483 191.22 237.14C191.042 238.801 190.945 240.323 190.881 241.709L190.751 245.785C190.755 246.993 190.805 247.963 190.882 248.72C190.971 249.606 191.094 250.211 191.214 250.565L191.242 250.653C191.282 250.81 191.509 251.276 191.815 251.865C192.176 252.559 192.588 253.309 192.962 253.986C194.085 256.008 195.473 258.548 196.851 261.394C198.244 264.27 199.639 267.478 200.768 270.816V270.826C201.065 271.717 202.204 274.638 203.513 277.998C204.853 281.438 206.373 285.337 207.348 287.977L207.938 289.573H200.934L200.673 288.738V288.736ZM199.862 278.268C200.855 281.398 201.816 284.447 202.676 287.195H204.525C203.559 284.636 202.373 281.593 201.304 278.85C200 275.503 198.866 272.595 198.525 271.574C197.427 268.337 196.071 265.22 194.717 262.423C193.348 259.596 191.988 257.107 190.888 255.131L190.884 255.126C190.474 254.385 190.034 253.585 189.709 252.959C189.338 252.244 189.046 251.622 188.948 251.261C188.788 250.764 188.631 249.997 188.526 248.951C188.437 248.081 188.38 247.023 188.38 245.784C188.516 244.779 188.516 242.684 188.516 241.606C188.582 240.156 188.683 238.578 188.864 236.888C189.044 235.209 189.308 233.389 189.705 231.424C190.064 229.004 190.59 225.81 191.172 222.273C191.591 219.726 192.041 216.998 192.456 214.383L193.319 209.044C194.582 201.202 195.75 193.956 196.395 191.091C196.478 190.629 196.671 189.931 196.806 189.471C198.071 184.233 199.073 180.086 196.27 168.407L196.265 168.403C195.354 164.489 194.632 161.288 194.052 158.575C193.473 155.87 193.045 153.695 192.717 151.826C192.526 150.809 192.333 149.892 192.143 149.044C191.959 148.231 191.762 147.423 191.559 146.622C190.995 144.328 190.579 142.373 190.286 140.724C189.951 138.835 189.767 137.298 189.694 136.084L189.689 135.628C189.569 132.843 189.43 129.93 186.752 125.973C185.34 123.884 184.045 121.954 183.003 120.391C181.931 118.782 181.205 117.671 180.967 117.278L180.92 117.2C180.774 116.909 180.481 116.298 180.186 115.662C179.944 115.146 179.672 114.549 179.453 114.043L179.416 113.951C179.293 113.587 179.172 113.257 179.056 112.986C178.951 112.74 178.855 112.546 178.775 112.428L178.696 112.298C178.394 111.704 177.993 111.181 177.66 110.747L177.34 110.335L177.284 110.07C176.971 108.588 176.366 105.353 175.796 102.198C175.211 98.9561 174.669 95.8271 174.527 94.8042C174.276 93.3193 174.059 92.2438 173.788 91.4419C173.557 90.7545 173.286 90.2847 172.902 89.9069L172.898 89.9019C172.833 89.8379 172.735 89.7611 172.63 89.6869C172.501 89.5959 172.379 89.522 172.293 89.4793L172.033 89.3503L171.937 89.2208L172.828 90.9797C172.999 91.3171 173.164 91.794 173.319 92.4787C173.454 93.083 173.591 93.8874 173.727 94.9531L175.593 105.29L176.536 110.436L177.072 111.23L177.261 111.489C177.53 111.839 177.815 112.212 177.98 112.735C178.265 113.268 178.699 114.245 179.133 115.221C179.572 116.211 180.012 117.201 180.254 117.62C180.613 118.239 182.161 120.553 183.909 123.169L186.107 126.46C188.665 130.186 188.776 132.736 188.903 135.714L188.919 136.092C188.981 137.51 189.237 139.261 189.588 141.117C189.946 143.01 190.399 144.986 190.85 146.829C191.199 148.255 191.509 149.818 191.909 151.841C192.634 155.5 193.653 160.651 195.561 168.5L195.566 168.514C198.308 180.308 197.332 184.241 195.989 189.655L195.694 190.85C194.856 194.391 193.357 203.839 191.866 213.242C190.797 219.989 189.728 226.715 188.904 231.27C188.587 233.213 188.327 235.105 188.113 236.895C187.908 238.616 187.746 240.233 187.616 241.703V245.784C187.616 247.193 187.673 248.374 187.775 249.316C187.879 250.278 188.023 250.987 188.19 251.429L188.218 251.508C188.41 252.152 189.206 253.61 190.28 255.577C192.432 259.52 195.658 265.43 197.758 271.727C198.229 273.144 198.974 275.469 199.862 278.269L199.862 278.268ZM156.71 205.281V176.218C156.619 180.332 156.478 184.474 156.342 188.489C156.138 194.487 155.944 200.204 155.944 205.281C155.944 209.028 154.4 212.423 151.906 214.881C149.417 217.334 145.981 218.853 142.193 218.853H67.2033C63.5689 218.853 60.2527 217.451 57.7857 215.172C55.298 212.872 53.6731 209.677 53.4571 206.126L53.428 205.654L53.7355 205.291C54.0179 204.957 54.2727 204.593 54.4982 204.205C54.7147 203.83 54.91 203.42 55.0807 202.979C55.1549 202.701 55.2524 202.415 55.3489 202.129C55.4354 201.878 55.5211 201.625 55.5835 201.378L56.5926 197.411L56.5976 196.155C56.6852 195.122 56.6521 194.162 56.6233 193.344C56.6076 192.89 56.5924 192.47 56.5924 192.255V186.423L54.4137 183.201L55.1187 182.509C55.2265 182.403 55.3358 182.295 55.4593 182.157C55.5502 182.062 55.6444 181.945 55.75 181.788L56.5924 180.54V179.295L56.6574 179.103C56.7966 178.692 56.9033 178.138 57.0215 177.52C57.0934 177.143 57.1707 176.742 57.2798 176.257V176.248C59.4835 166.783 57.7079 163.708 56.3055 161.282C55.6512 160.15 55.0642 159.134 54.8487 157.788L52.7867 158.34C52.991 158.982 53.4872 159.477 54.0611 160.049C54.5304 160.515 55.0403 161.023 55.5426 161.688C55.6297 161.79 55.7857 161.998 55.8801 162.27C56.8252 163.945 57.7501 166.351 57.8909 169.197C57.9986 171.367 57.6518 173.791 56.5142 176.337C55.7335 178.159 54.8316 179.505 53.8697 180.488C52.8769 181.503 51.8185 182.14 50.7557 182.52C50.4812 182.632 50.2041 182.721 49.9202 182.798L51.7672 182.959L51.9305 183.023C52.3143 183.174 52.7555 183.375 53.2146 183.629C53.6042 183.842 53.9841 184.086 54.3257 184.355L54.4463 184.45L54.5438 184.583C55.2044 185.477 55.5287 186.566 55.6829 187.71C55.8271 188.781 55.8276 189.842 55.8276 190.835C55.8276 191.445 55.8399 191.848 55.8523 192.269C55.9309 194.912 56.0256 198.1 54.3112 202.722C54.2074 203.011 54.0805 203.288 53.9379 203.553C52.5416 206.151 49.6106 207.433 46.7841 207.963C44.0534 208.475 41.3198 208.272 40.2753 207.89C40.1495 207.845 40.0391 207.796 39.9447 207.746L39.2678 207.339C39.0051 207.176 38.8142 207.059 38.6724 206.99L38.5775 206.943L38.491 206.879L38.0443 206.669C36.5342 205.958 33.159 204.367 31.5905 201.158L31.5669 201.111C30.6863 199.084 30.4673 197.299 30.7266 195.488C30.9752 193.752 31.6689 192.034 32.637 190.057L33.2421 188.849C34.7192 185.9 35.2658 184.808 37.2328 183.839L37.3485 183.788C37.8503 183.603 38.3536 183.416 38.9535 183.226C39.3755 183.092 39.7885 182.977 40.183 182.896C37.2142 182.017 36.1333 180.421 36.1289 180.415L36.0683 180.317C35.7568 179.754 35.2737 179.038 34.7428 178.25C32.7629 175.313 30.1297 171.406 30.6936 166.953V166.94C30.8215 166.033 30.978 165.184 31.1537 164.394L31.2161 164.12L30.4731 164.319L30.3048 165.162C30.2073 165.693 30.1158 166.264 30.0327 166.871V166.886C29.6774 169.277 30.2196 171.516 31.0889 173.497C31.9869 175.542 33.2597 177.36 34.2772 178.802L34.3327 178.89C34.5191 179.212 34.7263 179.519 34.9148 179.8C35.2907 180.36 35.6168 180.846 35.7542 181.338C35.8418 181.564 36.0465 181.866 36.2502 182.168C36.3805 182.298 36.7958 182.984 36.9316 183.187L35.9018 183.84C35.1402 184.322 34.5902 184.893 34.106 185.602C33.5869 186.363 33.1268 187.293 32.5817 188.428C32.5075 188.638 32.4257 188.808 32.3416 188.986C32.2506 189.174 32.1536 189.378 32.1025 189.579L32.0721 189.696L32.0097 189.82C31.1369 191.541 30.3271 193.345 30.0269 195.256C29.7341 197.121 29.9129 199.152 30.9754 201.423C31.7947 203.151 33.066 204.429 34.3236 205.362C35.6137 206.32 36.9151 206.93 37.7205 207.296L37.7677 207.317H37.8665L38.1769 207.536C38.6782 207.888 39.961 208.627 41.3237 209.255C42.2384 209.677 43.1712 210.041 43.8738 210.179L44.013 210.216C44.6899 210.438 46.3775 211.254 48.1257 212.187C49.6593 213.004 51.2667 213.927 52.2925 214.622L52.302 214.626C52.8958 215.036 53.7465 215.467 54.6539 215.888L52.954 214.188L52.6819 214.009C52.1009 213.627 51.198 213.084 50.1451 212.49C49.2338 211.977 48.2465 211.449 47.3106 210.987L44.1672 209.438L47.6073 208.76C48.219 208.64 48.8679 208.454 49.501 208.204C50.0791 207.978 50.6291 207.705 51.1104 207.388L52.5516 206.44L52.9197 208.126C53.1016 208.961 53.3433 209.736 53.6448 210.479C53.9494 211.229 54.3165 211.952 54.7443 212.675L57.3707 217.111L57.388 217.118C57.6143 217.229 57.8618 217.339 58.0941 217.434C58.3505 217.539 58.6058 217.634 58.8011 217.698L59.218 217.834L59.4458 218.208C59.8571 218.882 60.6384 220.423 61.0434 221.221L61.5109 222.072C61.9728 222.92 62.2612 223.446 62.5171 223.782L62.5593 223.838C62.8264 224.232 63.2362 224.907 63.6491 225.618C64.0505 226.312 64.4556 227.043 64.7266 227.579L64.7838 227.692C64.7995 227.756 64.8797 228.115 64.8921 228.127C64.988 228.539 65.111 229.062 65.3349 229.43L65.3763 229.498L65.4093 229.574C65.6062 230.028 66.2068 231.04 67.3095 232.632C68.1867 233.899 69.3652 235.505 70.8834 237.444L71.4284 238.24L71.7024 238.563C72.2917 239.256 72.96 240.043 73.6414 240.937L76.7819 245.064C78.4341 247.215 80.2428 249.483 82.0045 251.621C83.7162 253.697 85.4206 255.692 86.9296 257.373C88.9355 259.605 90.6257 261.211 92.0159 262.394C93.3886 263.562 94.5149 264.355 95.3546 264.927L95.4393 264.985L95.5167 265.061C95.653 265.196 95.7883 265.309 95.9118 265.401C96.0544 265.506 96.1705 265.577 96.2518 265.617L96.4033 265.691L96.5302 265.808C97.6386 266.823 100.221 269.289 102.28 271.348C103.741 272.81 104.979 274.112 105.35 274.659L105.429 274.789C105.674 275.273 105.813 275.717 105.931 276.095L106.016 276.36C106.132 276.706 106.25 277.052 106.419 277.398C106.576 277.722 106.787 278.059 107.098 278.417L107.144 278.473C107.365 278.763 108.198 280.008 109.279 281.655C110.434 283.421 111.759 285.456 112.876 287.195H113.707C113.659 287.077 113.614 286.982 113.571 286.913C112.417 285.064 110.974 282.81 109.815 281.046C108.784 279.476 107.936 278.226 107.653 277.893C107.196 277.352 107.028 276.826 106.823 276.179C106.654 275.659 106.453 275.028 105.98 274.271C105.632 273.713 104.456 272.451 103.063 271.039C100.72 268.663 97.8371 265.948 97.0425 265.244C96.7758 265.007 96.3517 264.708 95.8179 264.332C94.1353 263.146 91.4203 261.231 87.5221 256.895L87.5132 256.881C86.1976 255.38 84.7452 253.683 83.2687 251.919C81.842 250.215 80.3364 248.383 78.8425 246.525L75.6834 242.374C75.0325 241.514 74.2787 240.552 73.5821 239.663C72.7713 238.627 72.0314 237.683 71.4817 236.938C70.2004 235.286 69.1667 233.891 68.3553 232.76C67.0421 230.936 66.3175 229.795 66.0605 229.374L66.005 229.283L65.9725 229.202C65.6919 228.509 65.5724 227.762 65.532 227.455C65.1409 226.75 63.8305 224.403 63.2249 223.504C62.8854 223.049 62.5318 222.405 62.1139 221.641L60.2029 218.235L62.9292 218.968C63.642 219.159 64.3827 219.318 65.1285 219.422C65.8002 219.517 66.4963 219.571 67.2023 219.571H142.192C146.189 219.571 149.821 217.961 152.453 215.367C155.078 212.78 156.708 209.209 156.708 205.28L156.71 205.281ZM50.8952 210.192L51.0467 210.276L51.004 210.142L50.8952 210.192V210.192ZM40.501 205.316L41.092 205.668C41.8512 205.95 44.0272 206.069 46.3482 205.634C48.5823 205.215 50.8629 204.268 51.8508 202.43C51.9384 202.267 52.0186 202.091 52.087 201.906L52.0915 201.901C53.6466 197.712 53.5591 194.771 53.4867 192.334C53.4694 191.741 53.4519 191.17 53.4519 190.835C53.4519 189.893 53.4513 188.888 53.3352 188.025C53.2369 187.299 53.0591 186.631 52.7301 186.122C52.5156 185.963 52.2912 185.822 52.0684 185.699C51.7973 185.546 51.506 185.411 51.2255 185.295L47.0046 184.928H43.5157C43.0157 184.928 42.5677 184.957 42.1642 184.999C41.7332 185.045 41.3292 185.107 40.9577 185.167L40.9347 185.172C40.5372 185.228 40.1091 185.34 39.6692 185.48C39.2696 185.607 38.7456 185.801 38.2191 185.995C37.0087 186.614 36.5536 187.524 35.3586 189.912L34.7582 191.11C33.8968 192.866 33.2833 194.371 33.0757 195.822C32.8775 197.203 33.0515 198.58 33.7395 200.165C34.9528 202.591 37.7852 203.926 39.0562 204.524C39.3693 204.672 39.6102 204.784 39.7948 204.902C39.972 204.995 40.1982 205.134 40.5008 205.315L40.501 205.316ZM173.263 105.707L171.632 96.6847L171.573 96.8205C171.48 97.1236 171.391 97.3844 171.288 97.6893C170.732 99.3263 169.753 102.209 169.937 103.756C170.065 104.581 170.658 106.048 171.458 107.554C172.192 108.936 173.083 110.307 173.929 111.198L173.966 111.234C174.062 111.111 174.142 110.976 174.203 110.856L173.263 105.707H173.263ZM174.125 111.361C174.136 111.368 174.13 111.364 174.125 111.361V111.361Z" fill="#D8A04D"/>
<path d="M67.8732 75.2978V78.5738L71.5244 77.5955V98.2595L67.595 99.3123V102.336L78.6182 99.3827V96.3587L74.6888 97.4116V73.4716L67.8732 75.2978ZM94.7685 90.8432V72.0872L90.8043 69.0094C89.1004 69.466 87.4313 69.9132 85.7622 70.3605L81.7633 75.572V94.328L85.7274 97.6218L90.8391 96.2521L94.7685 90.8432ZM91.6389 78.1458V90.3858L89.4482 93.3848L87.0836 94.0184L85.5883 92.763L91.6389 78.1458ZM84.9276 88.3681V76.0561L87.0836 73.2824L89.4829 72.6395L90.9782 73.7508L84.9276 88.3681ZM112.631 86.0571V67.3011L108.666 64.2233C106.963 64.6798 105.293 65.1271 103.624 65.5743L99.6253 70.7858V89.5418L103.59 92.8356L108.701 91.466L112.631 86.0571ZM109.501 73.3597V85.5997L107.31 88.5987L104.946 89.2323L103.45 87.9769L109.501 73.3597ZM102.79 83.5819V71.2699L104.946 68.4963L107.345 67.8534L108.84 68.9647L102.79 83.5819ZM131.501 57.9608L120.86 88.0639L123.573 87.3371L134.283 57.2154L131.501 57.9608ZM121.973 72.1418L120.408 72.561L119.052 71.1604V65.3284L120.478 63.3264L121.869 62.9537L123.399 64.1637V69.9957L121.973 72.1418ZM134.735 81.9342L133.135 82.3628L131.779 80.9262V75.0942L133.205 73.0922L134.631 72.7102L136.091 73.9389V79.7709L134.735 81.9342ZM138.421 72.4146L135.639 70.064L132.197 70.9864L129.484 74.8092V82.3332L132.057 84.9557C133.275 84.6296 134.526 84.2941 135.778 83.9587L138.421 79.9746V72.4146ZM125.694 62.6488L122.912 60.2622L119.47 61.1846L116.722 65.0527V72.5767L119.33 75.2259L123.051 74.2289L125.694 70.2088V62.6488ZM50.9457 114.158V114.228L50.5883 114.543V120.893L51.4673 120.658V114.048L53.0997 113.61V120.22L53.9787 119.985V112.505L50.0764 113.55V114.39L50.9457 114.158ZM58.895 112.207L57.8036 111.37L56.4223 111.74L55.3308 113.163V118.453L56.4126 119.363L57.8036 118.99L58.895 117.497V112.207ZM57.4268 118.191L56.7893 118.362L56.2001 117.87V113.3L56.7797 112.544L57.4365 112.368L58.0161 112.813V117.383L57.4268 118.191ZM63.0465 116.755L61.3754 117.203L62.1772 111.188L63.0465 110.955V116.755ZM60.6413 118.95V118.2L63.6937 117.382V118.132L64.5437 117.904V116.354L63.9255 116.52V109.83L60.8538 110.653V111.543L61.6073 111.341V111.411L61.2402 111.749L60.4868 117.441L59.7913 117.627V119.177L60.6413 118.95ZM68.2629 115.357L66.5918 115.805L67.3935 109.79L68.2629 109.557V115.357ZM65.8577 117.552V116.802L68.91 115.984V116.734L69.7601 116.506V114.956L69.1419 115.122V108.432L66.0702 109.255V110.145L66.8236 109.943V110.013L66.4566 110.351L65.7032 116.043L65.0077 116.23V117.78L65.8577 117.552ZM71.644 111.091V108.671L72.8514 108.348V109.208L73.7304 108.972V107.202L70.2531 108.134V109.044L71.132 108.809V108.879L70.765 109.207V115.487L73.8173 114.669V112.989L72.9383 113.225V113.995L71.644 114.341V112.001L73.2764 111.564V110.654L71.644 111.091ZM76.0491 110.701V107.491L77.0827 107.214L77.6719 107.666V109.606L77.073 110.427L76.0491 110.701ZM77.4401 106.208L74.6485 106.956V107.836L75.5372 107.598V107.668L75.1701 107.997V114.307L76.0491 114.071V111.611L77.4497 111.236L78.5605 109.728V107.048L77.4401 106.208ZM82.9964 107.8V104.71L82.1174 104.945V108.035L81.8276 108.113L80.5236 105.372L79.5577 105.631L81.0646 108.727L79.3066 113.198L80.2725 112.939L81.8276 108.923L82.1174 108.845V112.445L82.9964 112.21V108.61L83.2862 108.532L84.8413 111.715L85.8073 111.456L84.0493 107.927L85.5561 104.024L84.5902 104.282L83.2862 107.722L82.9964 107.8ZM87.6421 103.495L86.2415 103.87V104.78L87.1302 104.542V104.612L86.7631 104.94V111.2L87.6421 110.965V107.415L88.1058 107.29L89.7092 110.411L90.6751 110.152L88.8689 106.636L90.453 102.742L89.4871 103L88.1058 106.38L87.6421 106.505V103.495ZM93.5943 106.51L92.3386 106.846L92.8698 102.984L93.0534 102.935L93.5943 106.51ZM91.5465 103.339L92.2999 103.137V103.207L91.9329 103.535L91.0442 110.053L91.9329 109.815L92.213 107.79L93.7198 107.386L94 109.261L94.8886 109.023L93.8164 101.82L91.5465 102.429V103.339ZM100.448 107.533V106.873L101.318 106.64L102.409 105.148V101.358L101.318 100.52L100.448 100.753V100.033L99.5695 100.269V100.989L98.6905 101.224L97.599 102.647V106.437L98.6905 107.344L99.5695 107.109V107.769L100.448 107.533ZM100.448 106.033V101.623L100.951 101.489L101.53 101.933V105.073L100.941 105.901L100.448 106.033ZM99.0576 101.996L99.5695 101.859V106.269L99.0672 106.403L98.478 105.891V102.751L99.0576 101.996ZM104.725 103.017V99.8074L105.759 99.5304L106.348 99.9826V101.923L105.749 102.743L104.725 103.017ZM106.116 98.5247L103.324 99.2727V100.153L104.213 99.9145V99.9845L103.846 100.313V106.623L104.725 106.387V103.927L106.126 103.552L107.236 102.044V99.3644L106.116 98.5247ZM110.668 101.935L109.412 102.271L109.943 98.4091L110.127 98.36L110.668 101.935ZM108.62 98.7637L109.373 98.5618V98.6318L109.006 98.9602L108.118 105.478L109.006 105.24L109.286 103.215L110.793 102.811L111.073 104.686L111.962 104.448L110.89 97.2455L108.62 97.8537V98.7637ZM112.522 97.7382L113.391 97.5053V97.5753L113.034 97.891V104.161L113.913 103.925V100.625L115.545 100.188V103.488L116.424 103.253V95.7826L115.545 96.0181V99.3181L113.913 99.7555V96.4555L112.522 96.8282V97.7382ZM118.211 96.2138V96.2838L117.854 96.5996V99.1996L118.955 100.115L120.239 99.7703V102.23L121.118 101.995V94.5048L120.239 94.7403V98.8603L119.332 99.1036L118.733 98.6041V95.1641L117.342 95.5368V96.4468L118.211 96.2138ZM124.647 98.1892L123.392 98.5257L123.923 94.6633L124.106 94.6142L124.647 98.1892ZM122.6 95.0179L123.353 94.816V94.886L122.986 95.2144L122.097 101.733L122.986 101.494L123.266 99.4693L124.773 99.0656L125.053 100.941L125.942 100.702L124.869 93.4997L122.6 94.1079V95.0179ZM128.163 92.0672L129.361 91.7463L129.902 90.9814L129.438 90.5556L129.052 90.9791L128.462 91.137L128.095 90.9153L127.612 91.5948L128.163 92.0672ZM127.371 93.7595V93.8295L127.013 94.1452V100.415L127.95 100.164L129.08 96.1814L129.766 93.4776L129.795 93.4698L129.631 96.1138V99.7138L130.51 99.4783V92.0083L129.322 92.3266L128.501 95.2266L127.786 98.3782L127.757 98.3859L127.892 95.3397V92.7097L126.501 93.0824V93.9924L127.371 93.7595ZM132.787 95.2982L133.608 95.0782L134.226 95.5626V96.9926L133.676 97.7601L133.067 97.9232L132.526 97.4481V96.4581L131.647 96.6936V98.0436L132.69 98.9141L134.062 98.5466L135.115 97.1145V94.9045L134.39 94.3586L134.922 93.5562V91.9062L133.917 91.0454L132.69 91.3741L131.705 92.7681V93.5881L132.594 93.35V92.91L133.057 92.2057L133.55 92.0737L134.033 92.5243V93.4343L133.521 94.2215L132.787 94.4182V95.2982ZM136.879 91.2117V91.2817L136.522 91.5975V97.8675L137.459 97.6164L138.589 93.6336L139.275 90.9298L139.304 90.9221L139.139 93.5661V97.1661L140.018 96.9306V89.4605L138.83 89.7789L138.009 92.6789L137.294 95.8304L137.266 95.8382L137.401 92.7919V90.1619L136.01 90.5346V91.4446L136.879 91.2117Z" fill="black"/>
<path d="M42.072 129.647L42.893 129.427L43.5112 129.911V131.341L42.9606 132.108L42.3521 132.271L41.8112 131.796V130.806L40.9322 131.042V132.392L41.9754 133.262L43.347 132.895L44.3999 131.463V129.253L43.6754 128.707L44.2067 127.905V126.255L43.2021 125.394L41.9754 125.722L40.9902 127.116V127.936L41.8788 127.698V127.258L42.3425 126.554L42.8351 126.422L43.318 126.873V127.783L42.8061 128.57L42.072 128.767V129.647ZM47.8835 128.799L46.6278 129.136L47.1591 125.273L47.3426 125.224L47.8835 128.799ZM45.8358 125.628L46.5892 125.426V125.496L46.2222 125.824L45.3335 132.343L46.2222 132.104L46.5023 130.079L48.0091 129.676L48.2892 131.551L49.1779 131.313L48.1057 124.11L45.8358 124.718V125.628ZM51.119 123.322L49.7184 123.698V124.608L50.6071 124.37V124.44L50.24 124.768V131.028L51.119 130.792V127.242L51.5827 127.118L53.1861 130.239L54.152 129.98L52.3457 126.464L53.9299 122.569L52.9639 122.828L51.5827 126.208L51.119 126.332V123.322ZM55.8638 126.151V122.941L56.8973 122.664L57.4865 123.116V125.056L56.8876 125.877L55.8638 126.151ZM57.2547 121.658L54.4632 122.406V123.286L55.3518 123.048V123.118L54.9848 123.447V129.757L55.8638 129.521V127.061L57.2643 126.686L58.3752 125.178V122.498L57.2547 121.658ZM63.0235 126.463V123.783L61.9127 122.87L60.5121 123.246V120.786L59.6331 121.021V128.511L61.9031 127.903L63.0235 126.463ZM61.536 123.881L62.1349 124.381V126.321L61.5457 127.089L60.5121 127.366V124.156L61.536 123.881ZM64.8974 127.1V119.6C64.144 119.802 64.7719 119.634 64.0184 119.836V127.336L64.8974 127.1ZM67.2308 122.225V119.925L68.1001 119.692L68.6604 120.122V121.212L68.1484 121.979L67.2308 122.225ZM67.2308 123.145L68.2354 122.876L68.8536 123.34V124.54L68.2933 125.271L67.2308 125.555V123.145ZM65.8302 120.301L66.7092 120.065V120.135L66.3422 120.463V126.713L68.6604 126.092L69.7422 124.682V122.682L69.0178 122.136L69.549 121.334V119.504L68.4672 118.664L65.8302 119.371V120.301ZM73.2391 122.005L71.9834 122.342L72.5147 118.479L72.6982 118.43L73.2391 122.005ZM71.1913 118.834L71.9448 118.632V118.702L71.5777 119.03L70.6891 125.549L71.5777 125.31L71.8578 123.285L73.3647 122.882L73.6448 124.757L74.5334 124.519L73.4613 117.316L71.1913 117.924V118.834ZM76.4746 119.838V117.418L77.682 117.095V117.955L78.561 117.719V115.949L75.0836 116.881V117.791L75.9626 117.556V117.626L75.5956 117.954V124.234L78.6479 123.416V121.736L77.7689 121.972V122.742L76.4746 123.088V120.748L78.107 120.311V119.401L76.4746 119.838ZM83.99 121.975L84.8497 121.744V114.264L83.1014 114.733L82.686 117.814L82.4445 120.489L82.4155 120.497L82.1644 117.914L81.7491 115.095L79.4791 115.703V116.593L80.3485 116.36V116.43L80.0007 116.744V123.044L80.8604 122.813V116.223L80.986 116.19L81.8843 121.859L82.9951 121.561L83.8644 115.418L83.99 115.385V121.975ZM88.9358 116.409V114.109L89.8052 113.876L90.3654 114.306V115.396L89.8535 116.164L88.9358 116.409ZM88.9358 117.329L89.9404 117.06L90.5586 117.525V118.725L89.9984 119.455L88.9358 119.739V117.329ZM87.5353 114.485L88.4142 114.249V114.319L88.0472 114.648V120.898L90.3654 120.276L91.4473 118.866V116.866L90.7228 116.321L91.2541 115.518V113.688L90.1722 112.848L87.5353 113.555V114.485ZM95.3691 113.646L96.2481 113.41V112.28L95.1953 111.422L93.8237 111.79L92.7708 113.212V118.472L93.814 119.402L95.1953 119.032L96.2481 117.54V116.36L95.3691 116.606V117.436L94.8089 118.226L94.2004 118.389L93.6498 117.896V113.336L94.1907 112.601L94.8186 112.433L95.3691 112.876V113.646ZM98.4909 113.939V111.519L99.6983 111.196V112.056L100.577 111.82V110.05L97.1 110.982V111.892L97.979 111.656V111.726L97.6119 112.055V118.335L100.664 117.517V115.837L99.7852 116.072V116.842L98.4909 117.189V114.849L100.123 114.412V113.502L98.4909 113.939ZM104.67 112.193V109.893L105.539 109.661L106.099 110.09V111.18L105.588 111.948L104.67 112.193ZM104.67 113.113L105.674 112.844L106.293 113.309V114.509L105.732 115.239L104.67 115.523V113.113ZM103.269 110.269L104.148 110.033V110.103L103.781 110.432V116.682L106.099 116.06L107.181 114.651V112.651L106.457 112.105L106.988 111.302V109.472L105.906 108.632L103.269 109.339V110.269ZM112.069 108.001L110.978 107.163L109.596 107.533L108.505 108.956V114.246L109.587 115.156L110.978 114.783L112.069 113.291V108.001ZM110.601 113.984L109.963 114.155L109.374 113.663V109.093L109.954 108.338L110.611 108.162L111.19 108.606V113.176L110.601 113.984ZM113.873 107.337V107.407L113.516 107.723V114.073L114.395 113.838V107.228L116.027 106.79V113.4L116.906 113.165V105.685L113.004 106.73V107.57L113.873 107.337ZM119.224 109.174V105.964L120.258 105.687L120.847 106.139V108.079L120.248 108.899L119.224 109.174ZM120.615 104.681L117.824 105.429V106.309L118.712 106.071V106.141L118.345 106.469V112.779L119.224 112.544V110.084L120.625 109.708L121.736 108.201V105.521L120.615 104.681ZM126.558 104.119L125.466 103.281L124.085 103.651L122.994 105.074V110.364L124.076 111.274L125.466 110.901L126.558 109.409V104.119ZM125.09 110.102L124.452 110.273L123.863 109.781V105.211L124.443 104.455L125.099 104.279L125.679 104.724V109.294L125.09 110.102ZM130.507 104.231L131.386 103.995V102.865L130.333 102.007L128.961 102.375L127.908 103.797V109.057L128.951 109.987L130.333 109.617L131.386 108.125V106.945L130.507 107.191V108.021L129.946 108.811L129.338 108.974L128.787 108.481V103.921L129.328 103.186L129.956 103.018L130.507 103.461V104.231ZM136.053 106.894V104.214L134.942 103.302L133.541 103.677V101.217L132.662 101.453V108.943L134.932 108.335L136.053 106.894ZM134.565 104.313L135.164 104.813V106.753L134.575 107.52L133.541 107.797V104.587L134.565 104.313ZM137.927 107.532V100.032C137.173 100.234 137.801 100.066 137.048 100.268V107.768L137.927 107.532ZM96.9536 122.971L97.0212 125.133L97.7263 124.944L97.7649 122.754L96.9536 122.971ZM98.2382 122.627L98.3059 124.789L99.0013 124.602L99.0786 122.402L98.2382 122.627ZM100.686 122.871V122.941L100.329 123.257V129.607L101.208 129.371V122.761L102.84 122.324V128.934L103.719 128.698V121.218L99.8169 122.264V123.104L100.686 122.871ZM108.636 120.921L107.544 120.083L106.163 120.453L105.071 121.876V127.166L106.153 128.076L107.544 127.703L108.636 126.211V120.921ZM107.167 126.904L106.53 127.075L105.941 126.583V122.013L106.52 121.258L107.177 121.082L107.757 121.526V126.096L107.167 126.904ZM112.787 125.469L111.116 125.916L111.918 119.901L112.787 119.669V125.469ZM110.382 127.663V126.913L113.434 126.095V126.845L114.284 126.617V125.067L113.666 125.233V118.543L110.594 119.366V120.256L111.348 120.054V120.124L110.981 120.462L110.227 126.154L109.532 126.341V127.891L110.382 127.663ZM117.923 117.422L116.522 117.798V118.708L117.411 118.47V118.54L117.044 118.868V125.128L117.923 124.892V121.342L118.386 121.218L119.99 124.339L120.956 124.08L119.149 120.564L120.733 116.669L119.768 116.928L118.386 120.308L117.923 120.432V117.422ZM122.88 116.964V117.034L122.484 117.38L121.73 123.032L121.17 123.182V124.022L122.513 123.662L123.421 116.819L124.29 116.586V123.186L125.169 122.951V115.461L122.097 116.284V117.174L122.88 116.964ZM130.463 120.662L129.903 120.812L129.313 120.32V115.75L129.893 114.995L130.472 114.84L131.052 115.284V119.854L130.463 120.662ZM131.931 114.679L130.84 113.841L129.536 114.191L128.444 115.613V117.903L127.488 118.159V114.859L126.097 115.232V116.142L126.966 115.909V115.979L126.609 116.295V122.565L127.488 122.329V119.029L128.444 118.773V120.903L129.526 121.813L130.84 121.461L131.931 119.969V114.679ZM133.72 114.1V114.17L133.362 114.485V117.085L134.463 118L135.748 117.656V120.116L136.627 119.881V112.391L135.748 112.626V116.746L134.84 116.989L134.241 116.49V113.05L132.85 113.423V114.333L133.72 114.1ZM137.751 112.039L137.818 114.201L138.523 114.012L138.562 111.822L137.751 112.039ZM139.035 111.695L139.103 113.857L139.798 113.671L139.876 111.47L139.035 111.695Z" fill="#D6A354"/>
<defs>
<filter id="filter0_d_1_14" x="6.69357" y="22.3228" width="211.307" height="154.067" filterUnits="userSpaceOnUse" color-interpolation-filters="sRGB">
<feFlood flood-opacity="0" result="BackgroundImageFix"/>
<feColorMatrix in="SourceAlpha" type="matrix" values="0 0 0 0 0 0 0 0 0 0 0 0 0 0 0 0 0 0 127 0" result="hardAlpha"/>
<feOffset dy="4"/>
<feGaussianBlur stdDeviation="2"/>
<feColorMatrix type="matrix" values="0 0 0 0 0 0 0 0 0 0 0 0 0 0 0 0 0 0 0.25 0"/>
<feBlend mode="normal" in2="BackgroundImageFix" result="effect1_dropShadow_1_14"/>
<feBlend mode="normal" in="SourceGraphic" in2="effect1_dropShadow_1_14" result="shape"/>
</filter>
</defs>
</svg>
