<svg width="316" height="376" viewBox="0 0 316 376" fill="none" xmlns="http://www.w3.org/2000/svg">
<g clip-path="url(#clip0_1_15)">
<path d="M17.5281 76.677L21.1596 75.8209V71.1879L16.8098 67.5394L11.1432 68.8753L6.79342 74.5748V96.1408L11.1033 100.086L16.8098 98.7404L21.1596 92.7539V87.9159L17.5281 88.813V92.216L15.2136 95.3857L12.6995 95.9784L10.4249 93.8907V75.1947L12.6596 72.2488L15.2535 71.6373L17.5281 73.52V76.677ZM29.4276 95.5607L33.0591 94.7046V67.3166L38.3666 66.0653V62.7033L24.16 66.0525V69.4145L29.4276 68.1727V95.5607ZM40.1065 93.0431L43.7779 92.1776L44.9351 83.9097L51.1605 82.4421L52.3178 90.1642L55.9891 89.2987L51.5595 59.634L44.5361 61.2898L40.1065 93.0431ZM50.6417 78.8334L45.4539 80.0564L47.6488 64.287L48.407 64.1082L50.6417 78.8334ZM63.5856 87.5078V73.9778L70.3297 72.3878V85.9178L73.9612 85.0617V54.4347L70.3297 55.2908V68.8208L63.5856 70.4108V56.8808L59.9541 57.7369V88.3639L63.5856 87.5078ZM93.5587 75.7675V64.7795L88.9696 60.9004L83.1832 62.2646V52.1786L79.5517 53.0347V83.7437L88.9296 81.5328L93.5587 75.7675ZM87.4132 64.9983L89.8874 67.121V75.075L87.4531 78.1499L83.1832 79.1566V65.9956L87.4132 64.9983ZM6.95304 136.859L16.5305 134.601L21 128.956V120.756L18.007 118.427L20.2018 115.204V107.701L15.7324 104.121L6.95304 106.191V136.859ZM10.6244 118.569V109.139L14.2159 108.292L16.5305 110.124V114.593L14.4155 117.675L10.6244 118.569ZM10.6244 122.341L14.7746 121.362L17.3286 123.343V128.263L15.0141 131.187L10.6244 132.222V122.341ZM26.5933 128.785L24.2788 129.331V132.775L29.8257 131.467L33.5769 103.522L37.1684 102.676V129.736L40.7999 128.88V98.1706L30.4243 100.617L26.5933 128.785ZM44.3933 128.032L48.0646 127.167L49.2219 118.899L55.4473 117.431L56.6045 125.154L60.2759 124.288L55.8463 94.6234L48.8229 96.2792L44.3933 128.032ZM54.9285 113.823L49.7407 115.046L51.9355 99.2763L52.6937 99.0976L54.9285 113.823ZM65.6775 126.09V123.015L78.2878 120.042V123.117L81.7996 122.289V115.934L79.2456 116.536V89.1069L68.8301 91.5624L65.039 119.885L62.1658 120.563V126.918L65.6775 126.09ZM75.6141 117.392L68.7104 119.02L72.0226 94.4587L75.6141 93.612V117.392ZM89.3833 100.37V90.4479L98.003 88.4158V84.6848C93.1743 85.8231 90.5804 86.4346 85.7518 87.573V118.282L98.5616 115.262V111.531L89.3833 113.695V104.101L96.6063 102.398V98.667L89.3833 100.37ZM103.716 110.603L101.402 111.148V114.592L106.949 113.285L110.7 85.3404L114.291 84.4937V111.554L117.923 110.698V79.9885L107.547 82.4346L103.716 110.603ZM137.479 101.413V90.4252L132.89 86.5461L127.103 87.9103V77.8243L123.472 78.6804V109.389L132.85 107.179L137.479 101.413ZM131.333 90.644L133.807 92.7667V100.721L131.373 103.796L127.103 104.802V91.6413L131.333 90.644ZM155.534 101.831V104.906L158.966 104.096V97.5775L156.811 98.0855V70.8615L153.18 71.7176V98.8186L146.435 100.409V73.3486L142.804 74.2047V104.832L155.534 101.831ZM166.545 82.1786V72.2566L175.165 70.2245V66.4935C170.336 67.6318 167.742 68.2434 162.914 69.3817V100.091L175.724 97.0708V93.3398L166.545 95.5036V85.9096L173.768 84.2068V80.4758L166.545 82.1786ZM197.28 91.9478L200.911 91.0917V60.4237L193.688 62.1265L192.012 74.6987L190.975 86.0953L190.855 86.1235L189.777 75.0615L188.101 63.4437C184.869 64.2057 184.111 64.3845 180.878 65.1465V95.8145L184.51 94.9584V67.9394L184.949 67.8359L188.66 91.643L193.249 90.561L196.841 65.0323L197.28 64.9288V91.9478ZM8.39355 191.52L22.3461 188.23L29.2332 179.653V165.379L22.4054 159.607L13.7964 161.637V150.047L27.8083 146.743V141.192L8.39355 145.77V191.52ZM20.0899 165.704L23.771 168.862V178.622L20.1493 183.197L13.7964 184.695V167.188L20.0899 165.704ZM34.0633 185.468L39.5255 184.18L41.2473 171.879L50.5094 169.696L52.2312 181.185L57.6935 179.897L51.1031 135.762L40.6536 138.225L34.0633 185.468ZM49.7376 164.327L42.0192 166.146L45.2847 142.684L46.4127 142.418L49.7376 164.327ZM77.4858 129.542L63.5333 132.831V178.52L68.9362 177.246V162.24L77.5452 160.211L84.373 151.22V134.872L77.4858 129.542ZM68.9362 156.689V137.108L75.289 135.611L78.9107 138.478V150.312L75.2297 155.206L68.9362 156.689ZM92.3498 171.727L106.302 168.437L113.189 159.859V145.585L106.362 139.814L97.7527 141.844V130.254L111.765 126.95V121.399L92.3498 125.977V171.727ZM104.046 145.911L107.727 149.069V158.829L104.105 163.404L97.7527 164.902V147.395L104.046 145.911ZM126.569 138.283V123.521L139.394 120.498V114.947C132.209 116.64 128.35 117.55 121.166 119.244V164.933L140.225 160.44V154.889L126.569 158.108V143.834L137.316 141.301V135.75L126.569 138.283ZM161.906 109.639L147.953 112.929V158.618L153.356 157.344V142.338L161.965 140.308L168.793 131.318V114.97L161.906 109.639ZM153.356 136.787V117.206L159.709 115.708L163.331 118.575V130.409L159.65 135.303L153.356 136.787ZM176.77 151.824L209.484 144.112V98.4836L204.081 99.7574V140.139L195.828 142.085V101.703L190.425 102.977V143.359L182.173 145.304V104.983L176.77 106.257V151.824ZM239.723 97.5766L233.014 92.2653L224.524 94.2669L217.815 102.742V135.011L224.464 140.763L233.014 138.747L239.723 129.846V97.5766ZM230.698 133.803L226.78 134.727L223.158 131.616V103.739L226.721 99.239L230.758 98.2872L234.32 101.107V128.984L230.698 133.803ZM253.604 133.71V93.3892L263.638 91.0237V131.345L269.04 130.071V84.4429L248.201 89.356V134.984L253.604 133.71ZM274.452 128.795L279.914 127.507L281.636 115.207L290.898 113.023L292.62 124.512L298.082 123.224L291.492 79.089L281.042 81.5525L274.452 128.795ZM290.126 107.654L282.408 109.474L285.673 86.0117L286.801 85.7458L290.126 107.654ZM14.2549 231.634L11.6152 229.544L8.27481 230.332L5.63517 233.666V246.362L8.25145 248.625L11.6152 247.832L14.2549 244.33V231.634ZM10.7042 245.887L9.16247 246.25L7.73754 245.026V234.058L9.13912 232.288L10.7276 231.913L12.1291 233.023V243.991L10.7042 245.887ZM17.4079 228.418V246.394L24.8129 244.649V242.561L19.5336 243.805V227.917L17.4079 228.418ZM29.207 241.429V227.869L31.7766 227.263L33.1548 228.33V239.082L31.7766 240.823L29.207 241.429ZM27.0813 244.114C28.9267 243.679 30.7955 243.238 32.6643 242.798L35.2805 239.469V226.941L32.6643 224.87L27.0813 226.186V244.114ZM38.5814 241.403L44.1877 240.081L46.8039 236.776V231.976L45.052 230.613L46.3367 228.726V224.334L43.7205 222.239L38.5814 223.451V241.403ZM40.7304 230.696V225.176L42.8328 224.68L44.1877 225.753V228.369L42.9496 230.173L40.7304 230.696ZM40.7304 232.904L43.1598 232.331L44.6549 233.491V236.371L43.3 238.082L40.7304 238.688V232.904ZM58.6244 221.173L55.9848 219.084L52.6444 219.871L50.0048 223.206V235.902L52.621 238.165L55.9848 237.372L58.6244 233.869V221.173ZM55.0738 235.426L53.5321 235.79L52.1071 234.566V223.598L53.5087 221.827L55.0971 221.453L56.4987 222.563V233.531L55.0738 235.426ZM66.6786 228.107L70.6964 215.831L68.4539 216.36L67.029 220.8L65.6274 225.81L64.2492 221.527L62.8243 217.687L60.535 218.227L64.5529 228.608V235.28L66.6786 234.779V228.107ZM77.1338 232.314L82.7401 230.992L85.3564 227.687V222.887L83.6045 221.524L84.8892 219.637V215.245L82.273 213.15L77.1338 214.362V232.314ZM79.2829 221.607V216.087L81.3853 215.591L82.7401 216.664V219.28L81.5021 221.084L79.2829 221.607ZM79.2829 223.815L81.7123 223.242L83.2073 224.402V227.282L81.8525 228.993L79.2829 229.599V223.815ZM87.4126 229.89L89.5617 229.384L90.2391 224.544L93.8832 223.685L94.5607 228.205L96.7097 227.699L94.1168 210.334L90.0055 211.303L87.4126 229.89ZM93.5796 221.573L90.5428 222.289L91.8276 213.058L92.2714 212.953L93.5796 221.573ZM101.11 210.893L103.259 210.387L104.684 211.515V215.979L103.235 217.928L101.11 218.429V210.893ZM101.11 220.613L102.955 220.178L105.688 225.582L108.024 225.031L104.917 218.876L106.809 216.342V210.126L104.123 207.975L98.984 209.186V227.162L101.11 226.661V220.613ZM110.143 224.532L115.749 223.21L118.366 219.905V215.105L116.614 213.742L117.898 211.855V207.463L115.282 205.368L110.143 206.58V224.532ZM112.292 213.825V208.305L114.394 207.809L115.749 208.882V211.498L114.511 213.302L112.292 213.825ZM112.292 216.033L114.721 215.46L116.216 216.62V219.5L114.862 221.211L112.292 221.817V216.033ZM123.786 211.331V205.523L128.831 204.334V202.15C126.005 202.816 124.486 203.174 121.66 203.841V221.817L129.158 220.049V217.865L123.786 219.131V213.515L128.014 212.519V210.335L123.786 211.331ZM133.32 203.3L135.47 202.793L136.894 203.921V208.385L135.446 210.334L133.32 210.836V203.3ZM133.32 213.02L135.166 212.584L137.899 217.988L140.235 217.437L137.128 211.282L139.02 208.748V202.532L136.334 200.381L131.195 201.593V219.569L133.32 219.068V213.02ZM143.966 210.606L141.863 211.102V214.39L144.433 216.568L147.773 215.78L150.343 212.39V207.542L144.082 204.506V202.01L145.367 200.291L146.839 199.945L148.147 201.052V202.924L150.249 202.428V199.668L147.75 197.57L144.479 198.341L141.98 201.618V206.13L148.264 209.161V212.017L146.885 213.829L145.344 214.193L143.966 213.03V210.606ZM155.655 213.802V205.882L159.602 204.951V212.871L161.728 212.37V194.442L159.602 194.943V202.863L155.655 203.794V195.874L153.529 196.375V214.303L155.655 213.802ZM173.62 194.063L170.981 191.973L167.64 192.76L165.001 196.095V208.791L167.617 211.054L170.981 210.261L173.62 206.759V194.063ZM170.07 208.316L168.528 208.679L167.103 207.455V196.487L168.505 194.717L170.093 194.342L171.495 195.452V206.42L170.07 208.316ZM182.286 189.548L176.797 190.842V208.818L178.922 208.317V202.413L182.31 201.614L184.996 198.077V191.645L182.286 189.548ZM178.922 200.229V192.525L181.422 191.935L182.847 193.063V197.719L181.399 199.645L178.922 200.229Z" fill="white"/>
<path d="M7.85434 200.719L5.72861 201.22V219.148L7.85434 218.647V210.127L8.9756 209.862L12.8533 217.468L15.1893 216.917L10.821 208.347L14.652 199.116L12.316 199.667L8.9756 207.678L7.85434 207.943V200.719ZM22.5786 197.199L17.089 198.494V216.47L19.2148 215.968V210.064L22.6019 209.266L25.2883 205.729V199.297L22.5786 197.199ZM19.2148 207.88V200.176L21.7143 199.587L23.1392 200.715V205.371L21.6909 207.297L19.2148 207.88ZM32.1175 203.567L30.6225 199.407L29.3143 195.587L27.0017 196.133L31.0196 206.897L29.1041 213.637L31.3466 213.108L37.0464 193.765L34.8038 194.293L33.4256 198.722L32.1642 203.556L32.1175 203.567ZM41.2051 210.784V194.92L45.1529 193.989V209.853L47.2786 209.352V191.4L39.0794 193.333V211.285L41.2051 210.784ZM52.7948 208.052V200.132L56.7425 199.201V207.121L58.8683 206.62V188.692L56.7425 189.193V197.113L52.7948 198.044V190.124L50.669 190.625V208.553L52.7948 208.052ZM64.36 195.341V189.533L69.4056 188.344V186.16C66.5791 186.826 65.0608 187.184 62.2342 187.85V205.826L69.7327 204.059V201.875L64.36 203.141V197.525L68.5881 196.528V194.344L64.36 195.341ZM75.0393 202.808L77.7724 193.331L79.3842 186.687L79.4543 186.671L79.1039 193.209V201.849L81.2296 201.348V183.42L78.3564 184.098L76.3708 190.998L74.6422 198.821L74.5721 198.838L74.8992 191.225V184.913L72.7734 185.414V203.342L75.0393 202.808ZM75.5065 183.401L78.4031 182.719L79.7112 180.922L78.59 179.866L77.6556 180.855L76.2307 181.191L75.343 180.632L74.175 182.227L75.5065 183.401ZM84.5901 200.556L97.4613 197.521V179.569L95.3355 180.071V195.959L92.0886 196.724V180.836L89.9628 181.337V197.225L86.7158 197.991V182.127L84.5901 182.628V200.556ZM102.958 186.242V180.434L108.004 179.244V177.06C105.177 177.726 103.659 178.084 100.832 178.751V196.727L108.331 194.959V192.775L102.958 194.042V188.426L107.186 187.429V185.245L102.958 186.242ZM113.637 193.708L116.371 184.232L117.982 177.588L118.052 177.571L117.702 184.11V192.75L119.828 192.248V174.32L116.954 174.998L114.969 181.898L113.24 189.721L113.17 189.738L113.497 182.125V175.813L111.372 176.314V194.242L113.637 193.708ZM114.105 174.302L117.001 173.619L118.309 171.822L117.188 170.767L116.254 171.755L114.829 172.091L113.941 171.532L112.773 173.128L114.105 174.302ZM127.431 190.456L133.038 189.134L135.654 185.829V181.029L133.902 179.666L135.187 177.78V173.388L132.57 171.292L127.431 172.504V190.456ZM129.58 179.749V174.229L131.683 173.734L133.038 174.806V177.422L131.8 179.226L129.58 179.749ZM129.58 181.957L132.01 181.385L133.505 182.544V185.424L132.15 187.135L129.58 187.741V181.957ZM152.772 184.458L154.898 183.957V166.005L150.67 167.001L149.688 174.361L149.081 181.032L149.011 181.048L148.38 174.573L147.399 167.772C145.507 168.218 145.063 168.323 143.171 168.769V186.721L145.297 186.22V170.404L145.554 170.343L147.726 184.279L150.413 183.646L152.515 168.702L152.772 168.642V184.458ZM160.494 182.661L163.227 173.185L164.838 166.541L164.908 166.524L164.558 173.063V181.703L166.684 181.202V163.274L163.811 163.951L161.825 170.851L160.096 178.675L160.026 178.691L160.353 171.078V164.766L158.228 165.268V183.196L160.494 182.661ZM175.534 161.14L170.044 162.434V180.41L172.17 179.909V174.005L175.557 173.206L178.244 169.669V163.237L175.534 161.14ZM172.17 171.821V164.117L174.67 163.527L176.094 164.655V169.311L174.646 171.237L172.17 171.821ZM183.508 167.252V161.444L188.553 160.254V158.07C185.727 158.736 184.208 159.094 181.382 159.761V177.737L188.88 175.969V173.785L183.508 175.052V169.436L187.736 168.439V166.255L183.508 167.252ZM202.355 160.096L204.48 159.595V156.883L201.934 154.748L198.617 155.53L196.071 158.866V171.49L198.594 173.799L201.934 173.012L204.48 169.507V166.675L202.355 167.2V169.192L201 171.048L199.528 171.395L198.196 170.173V159.229L199.505 157.504L201.023 157.146L202.355 158.248V160.096ZM209.787 161.056V155.248L214.833 154.059V151.875C212.006 152.541 210.488 152.899 207.662 153.565V171.541L215.16 169.773V167.589L209.787 168.856V163.24L214.015 162.243V160.059L209.787 161.056ZM219.859 168.666L221.985 168.164V152.132L225.092 151.4V149.432L216.776 151.393V153.361L219.859 152.634V168.666ZM229.614 166.366L232.347 156.889L233.959 150.245L234.029 150.229L233.679 156.768V165.408L235.805 164.906V146.978L232.931 147.656L230.946 154.556L229.217 162.379L229.147 162.396L229.474 154.783V148.471L227.348 148.972V166.9L229.614 166.366Z" fill="#D29C4E"/>
<path d="M3.8777 297.679L5.86326 297.211L7.35828 298.37V301.802L6.02678 303.556L4.55512 303.903L3.24699 302.771V300.395L1.12126 300.897V304.137L3.6441 306.302L6.96116 305.52L9.50736 302.16V296.856L7.75539 295.493L9.04017 293.606V289.646L6.61077 287.506L3.6441 288.206L1.26142 291.48V293.448L3.4105 292.941V291.885L4.53177 290.229L5.72311 289.948L6.89109 291.064V293.248L5.65303 295.052L3.8777 295.471V297.679ZM11.5316 304.394L13.6807 303.888L14.3581 299.048L18.0022 298.189L18.6797 302.709L20.8287 302.203L18.2358 284.838L14.1245 285.807L11.5316 304.394ZM17.6986 296.076L14.6618 296.792L15.9466 287.561L16.3904 287.457L17.6986 296.076ZM28.6159 282.391L23.1264 283.685V301.661L25.2521 301.16V295.256L28.6393 294.457L31.3256 290.92V284.488L28.6159 282.391ZM25.2521 293.072V285.368L27.7516 284.778L29.1765 285.906V290.562L27.7282 292.488L25.2521 293.072ZM33.2259 299.28L35.375 298.773L36.0525 293.933L39.6966 293.074L40.374 297.595L42.5231 297.088L39.9302 279.723L35.8189 280.693L33.2259 299.28ZM39.3929 290.962L36.3561 291.678L37.6409 282.447L38.0847 282.342L39.3929 290.962ZM44.8207 296.546L50.3102 295.252L53.0199 291.877V286.261L50.3336 283.991L46.9464 284.789V280.229L52.4593 278.929V276.745L44.8207 278.546V296.546ZM49.4226 286.389L50.8708 287.632V291.472L49.4459 293.272L46.9464 293.861V286.973L49.4226 286.389ZM54.9203 294.165L57.0694 293.659L57.7468 288.819L61.3909 287.96L62.0683 292.48L64.2174 291.973L61.6245 274.609L57.5132 275.578L54.9203 294.165ZM61.0872 285.847L58.0505 286.563L59.3352 277.332L59.7791 277.228L61.0872 285.847ZM68.1736 291.041L70.2993 290.54V274.508L73.4061 273.775V271.807L65.0901 273.768V275.736L68.1736 275.009V291.041ZM83.7685 284.628V278.196L81.0821 275.926L77.695 276.724V270.82L75.5693 271.321V289.297L81.0588 288.003L83.7685 284.628ZM80.1711 278.324L81.6194 279.567V284.223L80.1945 286.023L77.695 286.612V278.908L80.1711 278.324ZM88.3002 286.296V268.296C86.4782 268.725 87.9966 268.367 86.1745 268.797V286.797L88.3002 286.296ZM91.654 285.505L97.2603 284.183L99.8766 280.879V276.079L98.1246 274.716L99.4094 272.829V268.437L96.7931 266.342L91.654 267.553V285.505ZM93.8031 274.798V269.278L95.9054 268.783L97.2603 269.855V272.471L96.0222 274.275L93.8031 274.798ZM93.8031 277.006L96.2325 276.434L97.7275 277.593V280.473L96.3726 282.185L93.8031 282.79V277.006ZM101.936 283.081L104.085 282.574L104.763 277.735L108.407 276.876L109.084 281.396L111.233 280.889L108.64 263.525L104.529 264.494L101.936 283.081ZM108.103 274.763L105.066 275.479L106.351 266.248L106.795 266.144L108.103 274.763ZM115.797 279.813L118.53 270.337L120.142 263.693L120.212 263.677L119.861 270.215V278.855L121.987 278.354V260.426L119.114 261.103L117.128 268.003L115.4 275.827L115.33 275.844L115.657 268.23V261.918L113.531 262.42V280.348L115.797 279.813ZM116.264 260.407L119.16 259.724L120.469 257.928L119.347 256.872L118.413 257.861L116.988 258.197L116.1 257.638L114.932 259.233L116.264 260.407ZM1.72861 360.705L7.33492 359.384L9.9512 356.079V351.279L8.19922 349.916L9.484 348.029V343.637L6.86773 341.542L1.72861 342.753V360.705ZM3.8777 349.999V344.479L5.98006 343.983L7.33492 345.056V347.672L6.09686 349.476L3.8777 349.999ZM3.8777 352.207L6.3071 351.634L7.80211 352.794V355.674L6.44725 357.385L3.8777 357.991V352.207ZM27.0692 354.707L29.195 354.206V336.254L24.9669 337.251L23.9858 344.61L23.3784 351.281L23.3083 351.298L22.6776 344.823L21.6965 338.022C19.8044 338.468 19.3606 338.573 17.4684 339.019V356.971L19.5942 356.47V340.654L19.8511 340.593L22.0236 354.529L24.7099 353.896L26.8123 338.952L27.0692 338.891V354.707ZM34.6507 342.96V337.152L39.6964 335.962V333.778C36.8699 334.445 35.3515 334.803 32.525 335.469V353.445L40.0234 351.677V349.493L34.6507 350.76V345.144L38.8788 344.147V341.963L34.6507 342.96ZM49.2545 336.805L51.3802 336.304V333.592L48.834 331.456L45.5169 332.238L42.9707 335.574V348.198L45.4936 350.508L48.834 349.72L51.3802 346.216V343.384L49.2545 343.909V345.901L47.8996 347.756L46.428 348.103L45.0965 346.881V335.937L46.4046 334.213L47.923 333.855L49.2545 334.957V336.805ZM60.1211 338.707L57.9953 339.208L56.5471 337.942V333.478L57.972 331.678L60.1211 331.171V338.707ZM60.1211 346.939L62.2468 346.438V328.462L57.1077 329.674L54.4213 333.091V339.307L56.3135 340.949L53.2066 348.569L55.5426 348.019L58.2757 341.326L60.1211 340.891V346.939ZM73.0309 343.896V345.696L75.0398 345.222V341.406L73.7784 341.703V325.767L71.6527 326.269V342.133L67.7049 343.063V327.223L65.5792 327.724V345.652L73.0309 343.896Z" fill="#D29C4E"/>
<path d="M1.37822 321.164L3.50394 320.663V318.767L4.71864 317.113L5.98006 316.815L7.1714 317.902V320.878L1.28478 329.274V333.81L9.46064 331.883V327.947L7.31156 328.453V330.349L3.38714 331.274V329.57L9.32049 321.188V316.58L6.93781 314.405L3.73754 315.16L1.37822 318.452V321.164ZM19.5723 313.707V311.523L12.6344 313.158L12.214 321.873L16.7691 320.8L18.0305 322.062V326.31L16.7925 328.018L15.4142 328.343L14.1762 327.219V324.843L12.0505 325.344V328.56L14.4799 330.747L17.7268 329.982L20.1329 326.655V320.751L17.7268 318.414L14.4331 319.19L14.6434 314.869L19.5723 313.707ZM31.9291 323.778V311.274L29.2661 309.141C28.1215 309.411 27.0002 309.676 25.879 309.94L23.1926 313.333V325.837L25.8556 328.113L29.2895 327.304L31.9291 323.778ZM29.8268 315.249V323.409L28.3551 325.364L26.7666 325.739L25.7622 324.871L29.8268 315.249ZM25.3184 321.928V313.72L26.7666 311.915L28.3785 311.535L29.3829 312.306L25.3184 321.928ZM48.1714 319.948V307.444L45.5084 305.312C44.3637 305.582 43.2425 305.846 42.1212 306.111L39.4349 309.504V322.008L42.0979 324.284L45.5317 323.475L48.1714 319.948ZM46.069 311.42V319.58L44.5973 321.535L43.0089 321.909L42.0044 321.042L46.069 311.42ZM41.5606 318.099V309.891L43.0089 308.085L44.6207 307.705L45.6252 308.477L41.5606 318.099ZM60.1705 317.12V304.616L57.5075 302.483C56.3629 302.753 55.2417 303.018 54.1204 303.282L51.434 306.675V319.179L54.097 321.455L57.5309 320.646L60.1705 317.12ZM58.0682 308.591V316.751L56.5965 318.706L55.0081 319.081L54.0036 318.213L58.0682 308.591ZM53.5598 315.27V307.062L55.0081 305.257L56.6199 304.877L57.6243 305.648L53.5598 315.27ZM72.1697 314.291V301.787L69.5067 299.654C68.3621 299.924 67.2408 300.189 66.1196 300.453L63.4332 303.846V316.35L66.0962 318.627L69.5301 317.817L72.1697 314.291ZM70.0673 305.762V313.922L68.5957 315.877L67.0072 316.252L66.0028 315.385L70.0673 305.762ZM65.5589 312.441V304.233L67.0072 302.428L68.619 302.048L69.6235 302.819L65.5589 312.441ZM85.2584 296.037L79.7689 297.331V315.307L81.8946 314.806V308.902L85.2817 308.103L87.9681 304.566V298.134L85.2584 296.037ZM81.8946 306.718V299.014L84.3941 298.425L85.819 299.553V304.209L84.3707 306.134L81.8946 306.718ZM94.7973 302.404L93.3023 298.245L91.9942 294.425L89.6816 294.97L93.6994 305.735L91.7839 312.475L94.0265 311.946L99.7262 292.602L97.4837 293.131L96.1055 297.56L94.844 302.393L94.7973 302.404ZM101.783 310.117L107.272 308.823L109.982 305.448V299.832L107.295 297.562L103.908 298.36V293.8L109.421 292.5V290.316L101.783 292.117V310.117ZM106.384 299.96L107.833 301.203V305.043L106.408 306.843L103.908 307.432V300.544L106.384 299.96ZM113.097 305.434L111.742 305.753V307.769L114.989 307.004L117.185 290.646L119.287 290.151V305.991L121.413 305.489V287.513L115.339 288.945L113.097 305.434ZM126.88 294.216V288.408L131.926 287.219V285.035C129.099 285.701 127.581 286.059 124.754 286.726V304.702L132.253 302.934V300.75L126.88 302.016V296.4L131.108 295.404V293.22L126.88 294.216ZM137.559 301.683L140.293 292.206L141.904 285.562L141.974 285.546L141.624 292.084V300.724L143.75 300.223V282.295L140.877 282.973L138.891 289.873L137.162 297.696L137.092 297.713L137.419 290.1V283.788L135.294 284.289V302.217L137.559 301.683ZM138.027 282.277L140.923 281.594L142.231 279.797L141.11 278.742L140.176 279.73L138.751 280.066L137.863 279.507L136.695 281.102L138.027 282.277Z" fill="white"/>
<path d="M156 290.1L161.165 288.882V295.997L165.536 294.967V287.852L170.531 286.674V282.008L165.536 283.186V276.129L161.165 277.16V284.216L156 285.434V290.1Z" fill="white"/>
<path d="M112 57.7018L238.75 26.9518" stroke="#D29C4E" stroke-width="4"/>
<path d="M1.25 269.952L236 210.952" stroke="#D29C4E" stroke-width="4"/>
</g>
<defs>
<clipPath id="clip0_1_15">
<rect width="316" height="376" fill="white"/>
</clipPath>
</defs>
</svg>
